<?xml version="1.0" encoding="utf-8"?>
<svg
	xmlns:dc="http://purl.org/dc/elements/1.1/"
	xmlns:cc="http://creativecommons.org/ns#"
	xmlns:rdf="http://www.w3.org/1999/02/22-rdf-syntax-ns#"
	xmlns:svg="http://www.w3.org/2000/svg"
	xmlns="http://www.w3.org/2000/svg"
	height="512"
	width="512">
	<circle
		r="256"
		style="fill:#000000"
		cx="256"
		cy="256" />
	<path
		style="fill:#ffffff"
		d="m 255.925,106.0142 c -0.28781,-0.0457 -0.59297,0.0189 -0.84856,0.20561 l -143.45254,104.254 c -0.27885,0.20259 -0.42632,0.50529 -0.45415,0.82225 -0.16463,0.27288 -0.2225,0.60364 -0.11539,0.93167 l 54.79509,168.68508 c 0.10523,0.32655 0.34878,0.56137 0.63964,0.68632 0.20875,0.24 0.50727,0.40113 0.85196,0.40113 h 177.31864 c 0.3445,0 0.64304,-0.16139 0.85178,-0.40113 0.29106,-0.12548 0.53375,-0.35981 0.63981,-0.68632 l 54.7949,-168.68507 c 0.10696,-0.32802 0.0476,-0.65877 -0.11528,-0.93167 -0.0265,-0.31695 -0.17537,-0.61966 -0.454,-0.82225 L 256.92409,106.21977 c -0.279,-0.20296 -0.61452,-0.25096 -0.92475,-0.17915 -0.0253,-0.004 -0.0475,-0.0227 -0.073,-0.0265 z" />
	<circle
		r="38.495838"
		style="fill:#000000"
		cx="255.99954"
		cy="343.50287" />
</svg>

