<?xml version="1.0" encoding="utf-8"?>
<svg
	xmlns:dc="http://purl.org/dc/elements/1.1/"
	xmlns:cc="http://creativecommons.org/ns#"
	xmlns:rdf="http://www.w3.org/1999/02/22-rdf-syntax-ns#"
	xmlns:svg="http://www.w3.org/2000/svg"
	xmlns="http://www.w3.org/2000/svg"
	width="512"
	height="512">
	<circle
		r="256"
		cy="256"
		cx="256"
		style="fill:#ffffff" />
	<path
		style="fill:#17abaa"
		d="m 140.44549,186.00616 c -0.95185,0.49963 -1.76861,1.29123 -2.3069,2.23703 l -0.83133,1.466 v 66.26819 66.26613 l 0.76067,1.41049 c 0.41773,0.77309 1.31348,1.7518 1.99101,2.1733 l 1.23244,0.76487 h 18.0106 c 19.44461,0 19.02688,0.037 20.72068,-1.81554 1.58989,-1.73741 1.61693,-2.37068 1.61279,-36.69938 -0.004,-17.79145 0.0582,-32.41239 0.13714,-32.49053 0.079,-0.0761 1.82892,1.91218 3.89059,4.42062 2.06168,2.50845 3.83241,4.63651 3.93631,4.73109 0.10185,0.0946 1.11812,1.25011 2.25913,2.57013 1.13889,1.32002 2.1531,2.47555 2.25286,2.57013 0.0998,0.0946 0.64429,0.78749 1.21168,1.54208 0.56738,0.75459 2.52512,3.14378 4.34989,5.31091 1.82474,2.16713 6.03746,7.17991 9.35858,11.13791 l 6.03959,7.19636 0.20575,13.19401 c 0.31588,20.28551 -1.81436,18.57277 22.91123,18.4309 19.35733,-0.11103 19.02064,-0.0637 20.50454,-2.86209 l 0.71495,-1.34881 V 256 c 0,-74.71466 0.24108,-68.10018 -2.54802,-69.81702 l -1.26153,-0.77515 -17.74248,-0.0987 c -25.18904,-0.13776 -22.60364,-3.21779 -22.60779,26.91233 -0.004,11.54502 -0.13303,20.99075 -0.29307,20.99075 -0.27222,0 -3.63285,-3.69481 -8.85565,-9.74181 -1.31348,-1.52152 -3.98202,-4.53988 -5.92941,-6.70701 -3.63286,-4.04641 -13.33645,-15.01571 -20.0099,-22.61713 -8.02433,-9.14348 -7.35304,-8.90497 -25.21814,-8.90909 -12.8398,-0.002 -13.04346,0.0103 -14.49621,0.76899 m 171.40823,-0.24263 c -3.36687,1.03628 -4.69283,2.79425 -7.35927,9.7521 -0.93732,2.44676 -1.68346,4.37333 -4.38318,11.30856 -0.98927,2.54546 -2.09491,5.39727 -2.45655,6.34102 -0.35955,0.9417 -1.20335,3.09238 -1.87255,4.77839 -0.66919,1.686 -1.21582,3.1849 -1.21582,3.33294 0,0.14598 -0.46759,1.27684 -1.03912,2.5105 -0.57154,1.23572 -1.03917,2.39741 -1.03917,2.58246 0,0.18711 -0.29303,0.9931 -0.65052,1.79087 -0.35746,0.79982 -0.91652,2.2247 -1.23864,3.1664 -0.32422,0.94169 -0.7191,2.02115 -0.87499,2.39947 -0.15794,0.37627 -0.63181,1.60993 -1.05369,2.74078 -0.41983,1.13086 -1.03502,2.67294 -1.36338,3.42753 -0.54244,1.23983 -1.93488,5.4939 -3.75966,11.47922 -0.37407,1.22543 -0.8708,3.30621 -1.10564,4.62623 -0.23484,1.32002 -0.55492,2.78396 -0.71077,3.25481 -0.88955,2.67088 -1.06411,9.09003 -0.95812,35.29711 l 0.11014,27.24336 0.86666,1.70862 c 1.62526,3.20547 0.79808,3.07388 20.16994,3.18902 24.81291,0.15009 22.59329,2.02526 22.60158,-19.1197 0.004,-9.53415 0.13094,-14.99721 0.35331,-15.15759 0.30551,-0.22206 34.37309,-0.39682 34.5248,-0.17682 0.0314,0.0473 0.14756,6.87149 0.25979,15.16376 0.28474,21.4143 -2.16976,19.47745 24.44709,19.29857 l 16.27938,-0.10897 1.44024,-0.81627 c 2.87847,-1.63049 2.71638,0.37832 2.71638,-33.61111 v -29.99648 l -0.95188,-4.28286 c -1.71251,-7.68983 -5.20822,-19.02512 -6.18087,-20.03056 -0.17251,-0.17888 -0.31384,-0.65384 -0.31384,-1.05683 0,-0.40094 -0.10599,-0.83684 -0.23693,-0.96637 -0.13091,-0.12748 -0.42812,-0.73197 -0.66296,-1.34058 -0.23279,-0.61066 -0.96227,-2.49611 -1.61694,-4.19239 -0.65467,-1.69629 -2.31728,-6.01411 -3.69523,-9.59583 -1.37582,-3.57968 -3.32111,-8.59246 -4.32495,-11.13586 -2.18843,-5.55558 -5.3246,-13.58672 -6.7046,-17.16845 -1.27606,-3.3165 -2.39004,-4.74549 -4.66579,-5.99354 l -1.82059,-0.99721 -29.96086,-0.0678 c -25.1267,-0.0555 -30.22061,0.0123 -31.5528,0.42355 m 33.72671,37.67192 c 1.57951,0.65178 2.33188,1.94301 3.71185,6.34924 0.61933,1.97797 1.40704,4.44735 1.74787,5.48362 0.34293,1.03628 1.02875,3.27127 1.52547,4.96755 0.49464,1.69628 1.0537,3.35351 1.24073,3.68043 0.18499,0.32692 0.33879,0.78954 0.33879,1.02805 0,0.2385 0.70247,2.57012 1.55871,5.18138 0.85627,2.6133 1.55665,5.04156 1.55665,5.39726 0,0.74637 -29.84653,1.0445 -30.30998,0.30431 -0.11847,-0.19122 0.0935,-1.23161 0.46969,-2.31312 0.37616,-1.08357 1.0246,-3.12527 1.44233,-4.53987 0.41774,-1.41255 0.89575,-2.87855 1.06412,-3.25482 0.17041,-0.37626 0.52787,-1.53385 0.79599,-2.57012 0.26808,-1.03628 0.79805,-2.8107 1.17421,-3.94155 0.37826,-1.13086 1.18464,-3.67426 1.79569,-5.65428 0.61101,-1.97797 1.27815,-4.13688 1.48181,-4.79689 1.07655,-3.47482 2.12819,-4.93259 3.95087,-5.47335 1.60443,-0.47495 5.13966,-0.39271 6.4552,0.15216" />
	<path
		d="m 397.0206,110.53074 c -1.98063,0 -2.36078,0.11757 -3.55165,1.08805 -2.1531,1.75591 -2.28811,2.39498 -2.28811,10.89491 v 7.54979 l -33.68503,0.0272 c -42.69463,0.0349 -41.03864,-0.11301 -42.33341,3.80592 -0.80638,2.43648 -0.78523,28.20541 0.0236,30.55553 1.41115,4.09782 0.31577,3.99281 41.64488,3.99281 H 391.181 v 7.24184 c 0,9.46424 0.50056,10.95293 4.00871,11.91108 3.46454,0.9458 2.35916,1.82755 22.42311,-17.82879 22.04458,-21.5932 21.37713,-20.1314 12.9704,-28.40516 -2.39004,-2.35218 -10.41812,-10.25161 -17.84391,-17.55489 L 399.23832,110.53074 Z M 115.22992,324.10019 c -0.55119,-0.01 -1.14168,0.0484 -1.78492,0.16873 -0.96641,0.18299 -2.99276,2.06858 -18.496912,17.23028 -19.454993,19.02307 -18.966181,18.47568 -18.943324,21.24731 0.02479,2.87032 -0.993526,1.74555 22.073559,24.41613 l 14.558577,14.30662 h 2.08456 c 4.97962,0 5.67376,-1.34287 5.88366,-11.40338 0.13927,-6.73373 0.23892,-7.85399 0.72108,-8.10895 0.30759,-0.16243 16.5121,-0.31906 36.00866,-0.34578 39.88478,-0.0535 37.51931,0.10085 38.95126,-2.54535 0.75443,-1.3961 0.76268,-1.59945 0.76268,-16.4918 v -15.07764 l -0.83307,-1.15766 c -1.99725,-2.76958 0.48452,-2.60092 -39.65794,-2.69139 -19.60255,-0.0432 -35.6809,-0.12089 -35.72871,-0.17024 -0.0478,-0.0514 -0.14765,-3.75042 -0.22245,-8.22245 l -0.13468,-8.13013 -0.98969,-1.02147 c -1.30001,-1.34315 -2.59872,-1.9744 -4.25234,-2.00283 z"
		style="fill:#ef7922" />
</svg>

