<?xml version="1.0" encoding="utf-8"?>
<svg
	xmlns:dc="http://purl.org/dc/elements/1.1/"
	xmlns:cc="http://creativecommons.org/ns#"
	xmlns:rdf="http://www.w3.org/1999/02/22-rdf-syntax-ns#"
	xmlns:svg="http://www.w3.org/2000/svg"
	xmlns="http://www.w3.org/2000/svg"
	width="108"
	height="108">
	<rect
		ry="0"
		y="0"
		x="0"
		height="108"
		width="108"
		style="fill:#000000" />
	<path
		d="m 53.98418,22.36237 c -0.06071,-0.0096 -0.12508,0.004 -0.178993,0.04337 L 23.545666,44.396819 c -0.05882,0.04273 -0.08993,0.106585 -0.0958,0.173444 -0.03473,0.05756 -0.04693,0.12733 -0.02434,0.196524 l 11.558339,35.582009 c 0.0222,0.06888 0.07357,0.118414 0.134924,0.14477 0.04403,0.05062 0.107003,0.08461 0.179711,0.08461 h 37.40315 c 0.07267,0 0.135642,-0.03404 0.179673,-0.08461 0.0614,-0.02647 0.112588,-0.0759 0.13496,-0.14477 L 84.574585,44.766789 c 0.02256,-0.06919 0.01004,-0.138959 -0.02432,-0.196524 -0.0056,-0.06686 -0.03699,-0.13071 -0.09577,-0.173444 L 54.194925,22.405733 c -0.05885,-0.04281 -0.129625,-0.05294 -0.195064,-0.03779 -0.0053,-8.43e-4 -0.01002,-0.0048 -0.0154,-0.0056 z"
		style="fill:#ffffff" />
	<circle
		cy="72.457634"
		cx="53.999905"
		style="fill:#000000"
		r="8.1202154" />
</svg>
