<?xml version="1.0" encoding="utf-8"?>
<svg
	xmlns:dc="http://purl.org/dc/elements/1.1/"
	xmlns:cc="http://creativecommons.org/ns#"
	xmlns:rdf="http://www.w3.org/1999/02/22-rdf-syntax-ns#"
	xmlns:svg="http://www.w3.org/2000/svg"
	xmlns="http://www.w3.org/2000/svg"
	height="108"
	width="108">
	<rect
		y="0"
		x="0"
		height="108"
		width="108"
		style="fill:#ffffff" />
	<path
		d="m 29.625221,39.235674 c -0.200781,0.105391 -0.373067,0.272369 -0.486612,0.471874 L 28.96325,40.016782 V 53.995229 67.97324 l 0.160454,0.297526 c 0.08811,0.163073 0.277062,0.36952 0.419979,0.45843 l 0.259967,0.16134 h 3.799111 c 4.101598,0 4.013483,0.0078 4.370769,-0.382966 0.335367,-0.366485 0.341071,-0.500065 0.340198,-7.741275 -8.44e-4,-3.752884 0.01228,-6.836989 0.02893,-6.853471 0.01666,-0.01605 0.385788,0.40335 0.820671,0.932474 0.434886,0.529126 0.808399,0.978014 0.830315,0.997965 0.02148,0.01995 0.235854,0.263695 0.476536,0.542136 0.240234,0.278442 0.454169,0.522187 0.475212,0.542137 0.02105,0.01995 0.135905,0.166111 0.255589,0.325283 0.119682,0.159171 0.532643,0.663141 0.917555,1.12027 0.384906,0.457129 1.273527,1.514512 1.974075,2.349403 l 1.273976,1.517982 0.0434,2.783111 c 0.06663,4.278975 -0.382717,3.917694 4.832837,3.887768 4.083187,-0.02342 4.012167,-0.01344 4.325177,-0.603722 l 0.15081,-0.284514 V 54 c 0,-15.760124 0.05085,-14.364882 -0.537473,-14.727028 l -0.266104,-0.163508 -3.742555,-0.02082 c -5.313313,-0.02906 -4.767955,-0.678753 -4.76883,5.676819 -8.44e-4,2.435278 -0.02806,4.427737 -0.06182,4.427737 -0.05742,0 -0.766304,-0.779374 -1.867989,-2.054914 -0.277062,-0.320945 -0.839957,-0.95763 -1.250734,-1.414759 -0.766307,-0.85354 -2.813158,-3.167377 -4.220839,-4.770801 -1.692632,-1.928703 -1.551032,-1.878392 -5.319451,-1.879261 -2.708395,-4.22e-4 -2.751355,0.0022 -3.057794,0.162208 m 36.156423,-0.05118 c -0.710199,0.21859 -0.989894,0.589412 -1.552346,2.057083 -0.197716,0.516114 -0.355105,0.9225 -0.924577,2.3854 -0.208674,0.536933 -0.441895,1.138486 -0.518179,1.337558 -0.07584,0.19864 -0.253831,0.652299 -0.394991,1.007942 -0.141157,0.355641 -0.256462,0.671815 -0.256462,0.703042 0,0.03079 -0.09863,0.269334 -0.219189,0.529559 -0.120559,0.260659 -0.2192,0.505703 -0.2192,0.544737 0,0.03947 -0.06181,0.209482 -0.137219,0.377762 -0.0754,0.168712 -0.193328,0.469273 -0.261276,0.667913 -0.06839,0.198637 -0.151685,0.426336 -0.184568,0.506138 -0.03331,0.07937 -0.133272,0.339594 -0.222262,0.578133 -0.08856,0.238541 -0.218325,0.563823 -0.287588,0.722995 -0.114421,0.261526 -0.408139,1.158869 -0.793054,2.421398 -0.0789,0.258489 -0.183684,0.697403 -0.233221,0.975845 -0.04954,0.278442 -0.117053,0.587242 -0.149928,0.686561 -0.187639,0.563389 -0.22446,1.917429 -0.202103,7.445485 l 0.02323,5.746646 0.182811,0.360412 c 0.342828,0.676154 0.168345,0.648396 4.254596,0.672684 5.233974,0.03166 4.765772,0.427203 4.767521,-4.033062 8.44e-4,-2.01111 0.02762,-3.163474 0.07453,-3.197304 0.06444,-0.04684 7.250574,-0.0837 7.282575,-0.0373 0.0066,0.01 0.03113,1.449455 0.0548,3.198606 0.06006,4.517079 -0.457684,4.108524 5.156808,4.070792 l 3.433932,-0.02299 0.3038,-0.172182 c 0.607178,-0.343932 0.572987,0.0798 0.572987,-7.089844 V 55.30112 l -0.200787,-0.903416 c -0.361233,-1.622073 -1.098609,-4.013111 -1.303778,-4.225196 -0.03639,-0.03773 -0.0662,-0.13792 -0.0662,-0.222925 0,-0.08457 -0.02236,-0.176521 -0.04998,-0.203844 -0.02761,-0.02689 -0.09031,-0.1544 -0.139843,-0.282778 -0.0491,-0.128812 -0.202979,-0.526524 -0.341073,-0.884333 -0.138095,-0.357811 -0.488801,-1.268601 -0.779463,-2.02412 -0.290212,-0.755089 -0.700546,-1.812472 -0.912294,-2.348971 -0.461622,-1.17188 -1.123158,-2.865948 -1.414251,-3.62147 -0.269169,-0.699574 -0.50415,-1.001001 -0.984191,-1.264262 l -0.38403,-0.210349 -6.319869,-0.0143 c -5.300163,-0.01171 -6.37466,0.0026 -6.655669,0.08934 m 7.114228,7.946421 c 0.333178,0.137485 0.491881,0.409853 0.782968,1.339293 0.13064,0.417228 0.296798,0.938112 0.368692,1.156701 0.07234,0.21859 0.217002,0.690033 0.321778,1.047842 0.104339,0.357809 0.222265,0.707381 0.261717,0.776341 0.03902,0.06896 0.07146,0.166544 0.07146,0.216854 0,0.05031 0.148178,0.542135 0.328791,1.092948 0.180619,0.551243 0.328356,1.063454 0.328356,1.138484 0,0.157438 -6.295753,0.220324 -6.393512,0.06419 -0.02499,-0.04034 0.01972,-0.259793 0.09908,-0.487924 0.07935,-0.228566 0.216126,-0.659237 0.304241,-0.957629 0.08812,-0.29796 0.188947,-0.607194 0.224463,-0.686564 0.03595,-0.07937 0.111347,-0.323546 0.167904,-0.542134 0.05655,-0.218591 0.168339,-0.592882 0.247685,-0.831421 0.07979,-0.238541 0.249885,-0.775039 0.378778,-1.1927 0.128885,-0.417228 0.26961,-0.872623 0.31257,-1.011844 0.227084,-0.73297 0.448915,-1.040468 0.833386,-1.154534 0.338435,-0.100185 1.084147,-0.08284 1.361644,0.0321"
		style="fill:#17abaa" />
	<path
		style="fill:#ef7922"
		d="m 83.746533,23.315078 c -0.417789,0 -0.497977,0.0248 -0.749176,0.229511 -0.45417,0.370387 -0.482649,0.505191 -0.482649,2.298145 v 1.592533 l -7.105436,0.0057 c -9.005898,0.0074 -8.656588,-0.02384 -8.929703,0.802811 -0.170096,0.513945 -0.165635,5.949579 0.005,6.445307 0.297664,0.864384 0.06661,0.842234 8.784467,0.842234 h 7.245728 v 1.527575 c 0,1.996363 0.105587,2.310384 0.845587,2.512494 0.730802,0.199504 0.497636,0.385499 4.729875,-3.760761 4.650029,-4.554815 4.509239,-4.246467 2.735944,-5.991713 -0.504149,-0.496163 -2.197572,-2.162449 -3.76395,-3.702985 L 84.214333,23.315078 Z M 24.306311,68.364884 c -0.116266,-0.0021 -0.240823,0.01021 -0.376506,0.03559 -0.203852,0.0386 -0.631286,0.436341 -3.901693,3.634512 -4.103787,4.012679 -4.000678,3.897214 -3.995857,4.481855 0.0052,0.605458 -0.209572,0.368202 4.656141,5.150277 l 3.07095,3.017803 h 0.439712 c 1.050389,0 1.196809,-0.283262 1.241085,-2.4054 0.02938,-1.420397 0.0504,-1.656701 0.152102,-1.710482 0.06488,-0.03426 3.483021,-0.0673 7.595577,-0.07294 8.413196,-0.01128 7.914229,0.02127 8.216281,-0.53691 0.159138,-0.29449 0.160878,-0.337384 0.160878,-3.478739 v -3.18044 l -0.175725,-0.24419 c -0.421295,-0.584209 0.102203,-0.548632 -8.365347,-0.567716 -4.134913,-0.0091 -7.52644,-0.0255 -7.536525,-0.03591 -0.01008,-0.01084 -0.03114,-0.791104 -0.04692,-1.734423 l -0.02841,-1.714949 -0.208763,-0.215466 C 24.92907,68.504035 24.655124,68.370881 24.306313,68.364884 Z" />
</svg>

