<?xml version="1.0" encoding="UTF-8" standalone="no"?>
<svg
   xmlns:dc="http://purl.org/dc/elements/1.1/"
   xmlns:cc="http://creativecommons.org/ns#"
   xmlns:rdf="http://www.w3.org/1999/02/22-rdf-syntax-ns#"
   xmlns:svg="http://www.w3.org/2000/svg"
   xmlns="http://www.w3.org/2000/svg"
   id="svg90"
   version="1.1"
   width="2146"
   height="751">
  <metadata
     id="metadata96">
    <rdf:RDF>
      <cc:Work
         rdf:about="">
        <dc:format>image/svg+xml</dc:format>
        <dc:type
           rdf:resource="http://purl.org/dc/dcmitype/StillImage" />
        <dc:title></dc:title>
      </cc:Work>
    </rdf:RDF>
  </metadata>
  <defs
     id="defs94" />
  <path
     d="m 483.53832,564.72352 c -19.47537,-3.76228 -43.81959,-21.02455 -50.0163,-35.18846 -1.9918,-4.42622 -4.42622,-10.18031 -5.53278,-12.61473 -5.53278,-12.61473 -5.75409,-118.18012 -0.22131,-128.36043 1.10655,-2.43442 3.76229,-7.9672 5.75409,-12.17211 5.31146,-12.39342 27.22126,-30.98356 36.51633,-30.98356 2.65573,0 4.64753,-0.88524 4.64753,-2.21311 0,-2.87704 50.23762,-2.87704 52.00811,0 0.66393,1.32787 3.09835,2.21311 5.31146,2.21311 11.06556,0 30.31962,16.81965 36.73764,32.53273 2.21311,5.31147 3.31967,13.27867 2.87705,22.79505 l -0.66394,14.38522 -19.47537,0.66393 c -23.01635,0.66393 -25.8934,-0.88524 -25.8934,-13.72129 -0.22131,-11.72948 -3.9836,-16.37702 -16.37702,-20.13931 -15.27046,-4.64753 -24.78684,-0.88524 -31.42617,12.17211 -4.86885,9.51638 -5.09016,12.39343 -5.31147,58.20482 0,44.70484 0.44262,48.68844 4.86884,58.20482 2.43443,5.53277 6.19671,10.62293 8.18851,11.28686 1.9918,0.44263 5.31147,1.9918 7.30327,3.09836 8.40982,4.42622 28.32782,-1.10656 28.32782,-8.18851 0,-1.77049 1.10655,-3.09836 2.21311,-3.09836 1.32787,0 2.21311,-4.20491 2.21311,-9.51637 0,-5.31147 1.10656,-10.62294 2.65573,-12.17211 1.77049,-1.77049 10.18031,-2.65574 23.23767,-2.65574 h 20.58193 v 16.37702 c 0,9.07376 -0.88524,17.26227 -2.21311,17.9262 -1.10656,0.66394 -2.21311,3.31967 -2.21311,5.75409 0,2.21311 -0.88525,4.20491 -2.21311,4.20491 -1.10656,0 -2.21311,1.32787 -2.21311,3.09836 0,4.42622 -16.15571,18.36882 -26.99996,23.23766 -10.40162,4.64753 -39.83599,7.30327 -52.67204,4.86884 z"
     id="path271"
     style="fill:#2e2e2e;stroke:none;stroke-width:0.22131109" />
  <path
     d="m 1570.1759,564.50221 c -21.0246,-1.9918 -44.9262,-17.48357 -53.7786,-34.52453 -9.5164,-18.36882 -10.4017,-24.78684 -10.4017,-75.9097 0,-49.13106 0.664,-54.66384 8.4099,-74.13922 3.5409,-8.40982 22.5737,-30.0983 26.336,-30.0983 1.1065,0 6.1967,-1.9918 11.2869,-4.42623 14.1639,-6.86064 49.3523,-6.41802 65.0654,0.88525 12.3934,5.75409 21.6885,12.83604 21.6885,16.37702 0,1.10656 1.3279,2.65573 3.0984,3.31967 6.1967,2.43442 14.6065,20.80324 18.1475,39.39337 4.4262,23.23766 3.3196,87.19657 -1.9918,105.7867 -11.0656,38.50813 -42.4918,57.54088 -87.8605,53.33597 z m 32.3114,-34.52453 c 9.959,-4.64753 12.1721,-6.63933 15.7131,-14.16391 5.0901,-11.06555 5.9754,-19.47537 5.7541,-61.9671 0,-57.54088 -1.3279,-63.95891 -17.041,-75.46708 -7.9672,-5.75409 -10.6229,-6.41802 -25.0081,-6.41802 -15.7131,0 -16.3771,0.22131 -24.5656,8.40982 -4.4262,4.42622 -9.5164,12.39342 -11.0655,17.26226 -3.7623,12.83605 -3.541,98.26213 0.2213,111.09817 6.8606,22.79504 32.0901,32.53273 55.9917,21.24586 z"
     id="path273"
     style="fill:#2e2e2e;stroke:none;stroke-width:0.22131109" />
  <path
     d="m 598.17747,562.95304 c -2.21311,-0.44263 -3.9836,-2.21311 -3.9836,-3.54098 -1.10656,-46.03271 0.44262,-213.12258 1.9918,-214.67176 2.43442,-2.43442 69.9343,-1.9918 84.31952,0.66393 31.8688,5.9754 48.24582,25.67209 50.45893,60.19662 0.88525,18.36882 0.66394,19.918 -4.86884,28.32782 -3.09836,4.86884 -5.75409,9.29507 -5.75409,9.959 0,2.43442 -7.74589,9.959 -10.40162,9.959 -1.54918,0 -2.21311,1.54918 -1.54918,3.31967 0.88525,1.77048 2.43442,3.31966 3.54098,3.31966 4.20491,0 14.82784,13.49998 17.26226,21.68849 1.32787,4.42622 3.31967,20.36062 4.42623,35.40977 1.32786,17.9262 3.09835,28.77044 5.53277,32.09011 4.20491,5.9754 4.20491,7.08196 -0.22131,11.28687 -3.9836,4.20491 -31.64748,4.86884 -42.27042,1.32786 -8.85244,-3.09835 -11.28686,-12.17211 -11.9508,-42.0491 -0.44262,-24.12291 -1.54917,-28.54913 -9.29506,-36.95896 -3.76229,-4.42622 -6.86064,-5.09015 -19.25407,-5.09015 h -14.60653 l -0.44262,38.72944 c -0.22131,21.24586 -1.32787,40.49993 -2.43442,42.71304 -1.77049,3.31967 -5.09016,3.9836 -19.47538,4.20491 -9.51637,0 -19.03275,-0.22131 -21.02455,-0.88524 z M 674.52979,434.5926 c 2.87705,-1.77048 10.40163,-17.92619 10.40163,-22.57373 0,-7.9672 -6.86065,-21.9098 -12.39343,-25.67208 -3.76228,-2.43443 -9.29506,-3.31967 -18.1475,-2.87705 l -12.61474,0.66394 v 25.89339 25.8934 l 6.63934,0.88524 c 6.86064,0.88525 23.01635,-0.44262 26.1147,-2.21311 z"
     id="path275"
     style="fill:#2e2e2e;stroke:none;stroke-width:0.22131109" />
  <path
     d="m 764.16079,562.06779 c -3.76229,-1.9918 -3.9836,-9.51638 -3.9836,-109.32768 0,-99.8113 0.22131,-107.33588 3.9836,-109.10636 4.42622,-2.21312 36.0737,-1.9918 39.83599,0.44262 1.9918,1.10655 2.65574,29.65568 2.65574,109.7703 0,101.13917 -0.22132,108.22112 -3.76229,109.10637 -7.08196,1.9918 -34.96716,1.32786 -38.72944,-0.88525 z"
     id="path277"
     style="fill:#2e2e2e;stroke:none;stroke-width:0.22131109" />
  <path
     d="m 839.84918,561.18255 c -1.32787,-1.77049 -2.21311,-40.72124 -2.43442,-108.22113 0,-86.97525 0.44262,-106.00801 3.09835,-108.44243 2.43442,-2.43442 9.73769,-2.87704 33.8606,-2.21311 16.81964,0.44262 37.8442,1.32787 46.25402,1.9918 27.22126,2.43442 46.47533,15.9344 57.76219,40.72124 5.09016,10.84424 5.53278,13.9426 4.42622,32.09011 -1.9918,31.42617 -2.21311,34.08191 -4.64753,33.19666 -1.10656,-0.44262 -5.09016,3.09836 -8.40982,8.18851 -3.54098,4.86885 -9.07376,10.40162 -12.17211,12.61473 -3.31967,1.9918 -6.41802,4.20491 -7.08196,4.86885 -2.65573,2.87704 -13.94259,6.63933 -19.91799,6.63933 -3.54098,0 -7.08196,1.10656 -7.74589,2.21311 -0.66394,1.32787 -9.73769,2.21311 -20.13931,2.21311 H 884.1114 v 36.29502 c 0,26.77864 -0.66394,36.95895 -2.65574,38.28682 -4.64753,2.87704 -39.17206,2.65573 -41.60648,-0.44262 z m 87.19657,-121.94241 c 3.09835,-3.31967 5.75409,-7.74589 5.75409,-10.18031 0,-2.43443 1.10655,-6.19671 2.43442,-8.63114 1.54918,-3.09835 1.54918,-6.86064 -0.22131,-12.61473 -7.08196,-22.35242 -10.40162,-24.78684 -34.74584,-24.78684 H 884.1114 v 30.98355 30.98356 h 18.59013 c 17.04095,0 18.81144,-0.44263 24.34422,-5.75409 z"
     id="path279"
     style="fill:#2e2e2e;stroke:none;stroke-width:0.22131109" />
  <path
     d="m 1041.021,560.96124 c -1.7705,-2.21311 -2.4345,-25.45078 -2.2132,-84.76215 0.2214,-44.70484 -0.2213,-84.09822 -1.1065,-87.41788 -1.3279,-5.75409 -1.5492,-5.75409 -20.8032,-5.75409 -10.8443,0 -21.0246,-0.66393 -23.0164,-1.32787 -5.53278,-1.9918 -5.09016,-35.18846 0.44262,-37.40157 4.64753,-1.9918 136.54898,-1.9918 139.86858,0 1.1066,0.66393 2.2131,9.07375 2.2131,18.81144 0,13.72129 -0.6639,17.48358 -3.5409,18.59013 -1.9918,0.66394 -12.8361,1.32787 -24.3443,1.32787 h -20.8032 v 86.97526 c 0,102.68834 2.2131,94.49983 -26.1147,94.27852 -12.3934,-0.22131 -18.8115,-1.10655 -20.5819,-3.31966 z"
     id="path281"
     style="fill:#2e2e2e;stroke:none;stroke-width:0.22131109" />
  <path
     d="m 1185.0945,558.52681 c -12.8361,-6.41802 -33.1967,-25.22946 -33.1967,-30.54093 0,-1.77048 -0.8852,-3.31966 -1.7705,-3.31966 -0.8852,0 -3.0983,-4.64754 -4.8688,-10.40162 -2.6558,-8.18851 -3.3197,-23.01636 -3.0984,-63.7376 0,-51.34417 0.2213,-53.55728 5.3115,-64.18021 2.877,-5.9754 6.1967,-11.28687 7.0819,-11.72949 0.8853,-0.44262 1.7705,-1.9918 1.7705,-3.31967 0,-1.32786 4.2049,-6.19671 9.5164,-10.84424 8.6311,-7.9672 12.3934,-10.40162 28.7705,-17.04096 7.5245,-3.09835 49.3523,-3.31966 51.3441,-0.22131 0.664,1.10656 3.541,2.21311 6.1967,2.43443 2.6558,0 7.9672,1.9918 11.5082,4.42622 3.7623,2.43442 8.4098,4.86884 10.6229,5.53277 1.9918,0.88525 3.7623,2.21312 3.7623,3.09836 0,0.88524 3.0984,5.09016 6.8607,9.07375 14.6065,15.71309 19.6967,38.06551 19.6967,85.6474 -0.2213,30.31962 -0.8853,39.83599 -4.6476,52.45072 -6.418,22.35242 -6.6393,23.23767 -8.8524,23.23767 -1.1066,0 -1.9918,0.88524 -1.9918,2.21311 0,5.09016 -19.918,22.35242 -31.6475,27.66389 -11.0655,4.86884 -15.9344,5.53277 -36.5163,5.53277 -21.4672,0 -25.0082,-0.66393 -35.8524,-5.9754 z m 42.0491,-33.19666 c 0,-1.10655 2.4344,-1.9918 5.5328,-1.9918 6.1967,-0.44262 9.959,-3.76229 16.377,-14.38522 4.2049,-7.08195 4.6475,-10.84424 4.6475,-55.54908 0,-26.33602 -0.8852,-50.23762 -1.9918,-53.11467 -4.2049,-11.06555 -23.0163,-23.68028 -29.877,-19.91799 -1.1065,0.66393 -5.3114,1.32786 -9.295,1.77049 -8.8525,0.88524 -17.041,8.18851 -19.6967,17.48357 -2.8771,10.40162 -3.9836,98.70475 -1.1066,101.58179 1.1066,1.10656 2.2131,3.9836 2.2131,6.41802 0,5.75409 4.8689,9.959 11.2869,9.29507 2.877,-0.22131 3.541,0 1.5492,0.44262 -5.3115,1.32787 -5.0902,5.09016 0.2213,5.09016 2.4344,0 5.0901,1.10655 5.7541,2.21311 1.5491,2.65573 14.3852,3.09835 14.3852,0.66393 z"
     id="path283"
     style="fill:#2e2e2e;stroke:none;stroke-width:0.22131109" />
  <path
     d="m 1216.742,520.90393 c 0.8852,-0.66393 2.2131,-0.66393 3.0983,0 0.664,0.88524 0,1.54918 -1.5492,1.54918 -1.5491,0 -2.2131,-0.66394 -1.5491,-1.54918 z"
     id="path285"
     style="fill:#2e2e2e;stroke:none;stroke-width:0.22131109" />
  <path
     d="m 1331.3811,561.62517 c -1.7705,-1.77049 -2.4344,-34.30322 -2.4344,-109.32768 0,-99.58999 0.2213,-106.89326 3.9836,-108.88506 5.0901,-2.65573 22.3524,-1.77048 28.7704,1.77049 4.8689,2.65574 4.8689,3.09836 4.8689,47.8032 v 45.36877 h 36.5164 36.5163 v -45.36877 c 0,-44.70484 0,-45.14746 5.0902,-48.02451 7.0819,-3.76229 27.8852,-3.54098 30.3196,0.44262 1.3279,1.9918 2.2131,47.58189 2.2131,107.77851 0,119.06536 1.3279,111.54078 -18.8114,110.43423 -19.2541,-0.88525 -18.8115,0.22131 -18.8115,-50.23762 v -44.04091 h -36.5163 -36.5164 v 42.71305 c 0,51.56548 -0.2213,51.78679 -19.6967,52.0081 -7.082,0 -14.1639,-1.10655 -15.4918,-2.43442 z"
     id="path287"
     style="fill:#2e2e2e;stroke:none;stroke-width:0.22131109" />
  <path
     d="m 1731.733,560.96124 c -3.0984,-1.54918 -7.5246,-2.43443 -9.959,-1.77049 -3.0984,0.88524 -3.541,0.66393 -1.5492,-0.88525 2.2131,-1.54917 1.5492,-2.87704 -2.6557,-5.53277 -11.9508,-7.9672 -25.6721,-24.78685 -25.6721,-31.8688 0,-2.21311 -1.1066,-5.31147 -2.2131,-6.41802 -1.5492,-1.54918 -1.9918,-31.64749 -1.7705,-86.31133 l 0.6639,-83.8769 15.4918,-0.66393 c 12.6147,-0.44263 15.9344,0 18.1475,3.09835 2.2131,3.09836 2.877,22.35242 2.877,82.10642 0,77.68019 0,78.12281 5.0902,87.41788 3.541,6.41802 8.4098,11.06555 15.0491,14.60653 9.959,5.09015 22.7951,6.41802 25.2295,2.65573 0.6639,-1.10655 2.877,-2.21311 4.6475,-2.21311 4.4263,0 12.8361,-8.40982 18.3689,-18.36882 4.4262,-7.9672 4.6475,-11.28687 4.6475,-87.63919 0,-90.07362 -1.7705,-82.32773 19.4754,-82.99166 7.9672,-0.44262 12.3934,0.44262 14.3852,2.65573 3.9836,4.86885 3.7623,165.09808 0,169.08168 -1.5492,1.32786 -2.8771,4.86884 -2.8771,7.74588 0,2.87705 -0.8852,5.09016 -2.2131,5.09016 -1.1065,0 -2.2131,1.32786 -2.2131,3.09835 0,5.75409 -19.0327,23.23767 -31.2048,28.99176 -10.4017,4.86884 -14.8279,5.53277 -34.082,5.31146 -14.3852,-0.22131 -24.1229,-1.32786 -27.6638,-3.31966 z"
     id="path289"
     style="fill:#2e2e2e;stroke:none;stroke-width:0.22131109" />
  <path
     d="m 1896.6097,558.74813 c -5.9754,-2.87705 -12.6147,-7.30327 -14.8278,-9.73769 -1.9918,-2.43442 -4.2049,-4.42622 -5.0902,-4.42622 -2.6557,0 -11.9508,-12.17211 -12.1721,-15.9344 0,-1.9918 -0.8852,-4.42622 -2.2131,-5.09016 -1.1066,-0.66393 -2.2131,-7.74589 -2.2131,-15.71309 v -14.16391 h 15.0491 c 16.8197,0 20.3607,1.9918 20.3607,12.17211 0,20.80325 27.6639,35.8524 49.3523,26.77865 10.8443,-4.42623 14.8279,-12.17211 14.8279,-28.54913 0,-12.39342 -0.664,-15.04916 -5.9754,-20.13931 -6.1967,-6.19671 -35.6311,-21.24587 -41.6065,-21.24587 -1.7705,0 -3.3197,-0.88524 -3.3197,-2.21311 0,-1.10655 -1.5491,-2.21311 -3.3196,-2.21311 -3.7623,0 -17.9262,-7.74589 -22.3525,-12.17211 -1.7704,-1.54918 -3.7622,-3.31967 -4.6475,-3.76229 -4.2049,-1.77049 -13.9426,-19.918 -13.9426,-25.8934 0,-3.54097 -1.1065,-9.29506 -2.2131,-12.61473 -1.7705,-4.20491 -1.7705,-6.63933 0,-8.40982 1.1066,-1.10655 2.2131,-5.09015 2.2131,-8.40982 0,-11.72949 16.5983,-32.97535 30.7623,-39.39337 3.0983,-1.54918 7.5245,-3.54098 9.5163,-4.64754 2.2131,-1.10655 13.2787,-1.9918 24.5656,-1.9918 17.4835,0 22.1311,0.88525 31.8688,5.53278 21.6884,10.84424 37.6228,36.07371 35.631,56.43433 l -0.6639,7.74589 -15.0491,0.66393 c -8.6312,0.44262 -16.3771,-0.44262 -18.1476,-1.77049 -1.5491,-1.32787 -3.3196,-6.41802 -3.9836,-11.50818 -1.5491,-11.50817 -7.3032,-19.47537 -17.9261,-24.78684 -10.8443,-5.31146 -25.2295,-3.31966 -32.9754,4.42622 -10.6229,10.62294 -9.7377,35.63109 1.5492,46.25402 3.7623,3.54098 21.2458,12.17211 24.7868,12.17211 1.7705,0 4.8689,0.88525 7.082,1.9918 11.7295,5.9754 15.9344,7.08196 20.3606,5.75409 4.2049,-1.32787 4.6475,-0.88524 3.3197,3.09835 -0.8853,3.31967 -0.4427,4.64754 1.9918,4.64754 4.6475,0 23.0163,19.25406 26.7786,28.10651 4.4262,10.40162 4.4262,42.0491 0.2213,50.68024 -5.5328,11.06555 -17.4836,21.90979 -30.5409,28.1065 -11.0656,5.31147 -15.2705,5.9754 -34.3032,5.75409 -18.3689,0 -23.459,-0.88524 -32.7541,-5.53277 z"
     id="path291"
     style="fill:#2e2e2e;stroke:none;stroke-width:0.22131109" />
  <path
     d="m 2027.1833,560.07599 c -2.8771,-3.09835 -3.3197,-17.26226 -3.3197,-107.7785 0,-94.27852 0.4426,-104.45883 3.7623,-107.11457 2.877,-2.43442 14.3852,-2.87704 59.09,-2.43442 30.541,0.44262 56.4344,1.54918 57.3196,2.43442 1.1066,1.10656 1.5492,7.08196 1.1066,13.72129 l -0.664,11.9508 -40.9425,1.10656 -40.9426,1.10655 v 29.877 29.877 l 33.1967,1.10655 c 18.3688,0.66393 34.5245,1.9918 36.0737,2.87704 3.541,2.43443 3.541,22.79505 0,25.00816 -1.5492,1.10655 -17.7049,1.77049 -36.0737,1.9918 h -33.1967 l -0.2213,30.31962 c -0.2213,16.59833 -0.8852,31.86879 -1.5491,33.63928 -1.3279,3.09836 3.0983,3.54098 37.4015,3.54098 22.5738,0 40.5,0.88524 43.1557,2.21311 6.1967,3.54098 6.1967,25.45078 -0.2213,28.77044 -2.8771,1.54918 -23.0164,2.21311 -57.5409,1.9918 -46.6966,-0.22131 -53.336,-0.88524 -56.4343,-4.20491 z"
     id="path293"
     style="fill:#2e2e2e;stroke:none;stroke-width:0.22131109" />
  <path
     d="m 499.69403,520.90393 c 0.88525,-0.66393 2.21311,-0.66393 3.09836,0 0.66393,0.88524 0,1.54918 -1.54918,1.54918 -1.54918,0 -2.21311,-0.66394 -1.54918,-1.54918 z"
     id="path295"
     style="fill:#2e2e2e;stroke:none;stroke-width:0.22131109" />
  <path
     d="m 1738.5936,518.91213 c 0,-2.43442 0.6639,-3.09836 1.3279,-1.32787 0.6639,1.54918 0.4426,3.54098 -0.2213,4.20491 -0.664,0.88525 -1.3279,-0.44262 -1.1066,-2.87704 z"
     id="path297"
     style="fill:#2e2e2e;stroke:none;stroke-width:0.22131109" />
  <path
     d="m 486.85799,563.61697 c -1.10656,-0.44262 -6.63933,-1.9918 -12.17211,-3.76229 -10.40162,-2.87704 -19.918,-8.63113 -27.8852,-16.59833 -7.08195,-6.86064 -16.37702,-22.35242 -16.37702,-26.99995 0,-2.21311 -0.66393,-4.64754 -1.32786,-5.53278 -1.9918,-1.77049 -1.77049,-112.20472 0.22131,-119.95061 0.88524,-3.54098 3.09835,-9.29507 4.86884,-12.61473 3.54098,-7.30327 16.37702,-21.68849 19.25407,-21.68849 1.10655,0 3.09835,-1.54918 4.42622,-3.54098 3.09835,-3.9836 30.09831,-11.9508 41.16386,-11.9508 10.84424,0 35.40977,5.31147 43.37697,9.51638 17.04096,8.85244 30.54093,33.41797 29.21307,52.89335 l -0.66394,9.51638 -20.36062,0.66393 c -11.28686,0.22131 -20.80324,-0.22131 -21.02455,-1.10656 0,-0.88524 -0.44262,-4.20491 -0.66393,-7.30326 -0.22131,-3.09836 -2.21311,-9.29507 -4.20491,-13.72129 -3.09836,-6.63933 -5.9754,-8.85244 -14.38522,-11.72949 -18.36882,-5.9754 -33.41798,2.65574 -37.8442,22.35242 -3.76229,15.71309 -5.09016,56.87695 -2.43442,81.44248 3.54097,34.52453 10.40162,43.37698 32.97535,43.37698 15.04915,-0.22131 24.78684,-9.29507 24.78684,-23.68029 0,-9.959 2.21311,-11.28686 17.26227,-11.50817 7.52457,0 14.82784,-0.66394 15.9344,-1.32787 1.10655,-0.66393 4.20491,-0.22131 6.63933,1.10655 7.52458,3.9836 5.53278,23.9016 -4.20491,42.04911 -5.75409,10.62293 -16.59833,19.918 -28.77044,24.34422 -10.62294,4.20491 -42.04911,7.9672 -47.8032,5.75409 z"
     id="path300"
     style="fill:#4e4e4e;stroke:none;stroke-width:0.22131109" />
  <path
     d="m 1201.6928,562.51041 c -22.795,-5.9754 -40.4999,-19.69668 -50.0163,-38.95075 l -7.082,-14.38522 v -56.43433 -56.43432 l 7.3033,-14.60654 c 12.6147,-24.56553 40.0573,-40.72124 69.713,-40.72124 14.3852,0 38.2868,7.52458 49.3524,15.27047 8.6311,6.41802 19.918,20.80324 23.459,30.09831 7.9672,20.58193 10.8442,87.63919 4.8688,115.08176 -8.1885,38.72944 -33.1967,59.97531 -72.59,61.96711 -10.1803,0.44262 -21.2459,0.22131 -25.0082,-0.88525 z m 42.9344,-44.26221 c 7.7459,-7.74589 8.8524,-10.18031 10.1803,-23.45898 0.8852,-7.9672 1.3278,-32.97535 0.6639,-55.32777 -0.6639,-34.30322 -1.3279,-41.38518 -4.6475,-44.92615 -1.9918,-2.21311 -3.7623,-5.09016 -3.7623,-6.19671 0,-3.31967 -18.1475,-10.40163 -26.336,-10.18031 -3.9836,0.22131 -11.5082,2.43442 -16.5984,4.86884 -13.9426,6.63933 -17.2622,19.918 -17.0409,68.16382 0.2213,20.36062 0.8852,40.49993 1.5492,44.70484 3.5409,21.68848 13.9426,30.98355 34.7458,30.98355 11.7295,0 13.2787,-0.66393 21.2459,-8.63113 z"
     id="path302"
     style="fill:#4e4e4e;stroke:none;stroke-width:0.22131109" />
  <path
     d="m 1566.8562,562.51041 c -12.1721,-2.21311 -29.6557,-10.40162 -31.2049,-14.38522 -0.6639,-1.9918 -2.4344,-3.54097 -3.9836,-3.54097 -4.2049,0 -13.7213,-13.72129 -19.0327,-27.66389 -4.2049,-11.50818 -5.0902,-18.81144 -5.9754,-53.11466 -1.3279,-42.93435 1.7705,-68.38513 10.4016,-84.98346 8.4098,-16.15571 30.7622,-32.97535 46.0327,-34.52453 3.3197,-0.22131 7.7459,-1.32787 9.959,-2.21311 6.1967,-2.65573 28.5491,0.44262 41.6065,5.53278 13.5,5.31146 28.5491,18.81144 35.6311,32.0901 7.5246,14.16391 10.6229,36.73764 10.6229,75.46709 0,19.47537 -0.6639,36.29501 -1.3279,36.95895 -0.8852,0.88524 -1.9918,5.9754 -2.4344,11.72949 -0.8852,11.28686 -10.1803,31.42617 -15.0491,33.41797 -1.7705,0.66393 -3.3197,2.21311 -3.3197,3.31967 0,3.54097 -9.0738,10.18031 -21.2459,15.93439 -12.6147,5.9754 -36.0737,8.63114 -50.6802,5.9754 z m 36.0737,-30.0983 c 5.5328,-2.21312 10.4016,-6.63934 14.8278,-13.9426 l 6.6394,-10.40162 v -54.22122 c 0,-60.86055 -0.8853,-65.50808 -16.1557,-77.01626 -7.082,-5.31147 -9.7377,-5.9754 -25.6721,-5.9754 -17.2623,0 -18.3688,0.22131 -26.336,7.52458 -13.5,12.39342 -15.2705,22.57373 -14.3853,80.55723 0.664,52.45073 1.1066,54.44253 13.2787,67.94251 9.5164,10.62293 29.4344,12.83604 47.8032,5.53278 z"
     id="path304"
     style="fill:#4e4e4e;stroke:none;stroke-width:0.22131109" />
  <path
     d="m 1745.0116,562.2891 c -4.2049,-1.10655 -10.4016,-2.65573 -13.9426,-3.54097 -3.3196,-0.66394 -9.0737,-4.20492 -12.836,-7.74589 -3.7623,-3.54098 -7.3033,-6.41802 -7.9672,-6.41802 -4.8689,0 -18.8115,-26.99996 -20.5819,-39.836 -1.3279,-8.18851 -2.2132,-149.82761 -1.3279,-154.03252 1.1065,-4.20491 2.877,-4.64753 16.1557,-4.42622 8.4098,0.22131 15.7131,1.32787 16.5983,2.43442 0.8853,1.32787 1.7705,36.51633 1.7705,78.56544 0.2213,79.8933 0.8853,87.41788 10.4016,97.8195 5.5328,6.19671 20.1393,12.83604 28.9918,12.83604 8.6311,0 14.6065,-2.65573 23.459,-10.84424 13.0573,-12.17211 14.6065,-22.35242 15.2704,-109.7703 l 0.4427,-70.59824 h 15.0491 15.0492 v 81.44248 c 0.2213,52.22942 -0.664,82.32773 -1.9918,83.65559 -1.3279,1.32787 -1.7705,3.54098 -1.3279,5.09016 1.5492,3.76229 -8.8524,20.58193 -17.7049,28.54913 -16.1557,14.82784 -44.7048,22.13111 -65.5081,16.81964 z"
     id="path306"
     style="fill:#4e4e4e;stroke:none;stroke-width:0.22131109" />
  <path
     d="m 1913.2081,562.51041 c -29.2131,-6.41802 -53.1147,-32.0901 -53.1147,-57.31957 0,-8.85244 3.7623,-11.50818 17.0409,-11.50818 13.0574,0 13.7213,0.66394 18.3689,19.03276 6.418,25.8934 44.9261,34.08191 61.5244,13.05735 6.1968,-7.74589 6.6394,-28.32782 1.1066,-39.39337 -3.541,-6.86064 -16.1557,-14.60653 -34.9671,-21.68849 -13.0574,-4.64753 -30.3197,-13.49997 -33.8606,-17.04095 -2.2132,-2.21311 -5.7541,-4.64753 -7.5246,-5.53278 -1.9918,-0.66393 -6.418,-5.9754 -9.7377,-11.72949 -5.0902,-8.63113 -6.1967,-13.49997 -6.6393,-27.22126 -0.2214,-10.18031 0.6639,-19.69669 2.4344,-23.9016 4.4262,-10.62293 20.5819,-26.33602 32.3114,-31.42617 11.5082,-5.09016 32.9754,-8.18851 38.9508,-5.75409 2.2131,0.88524 6.8606,1.9918 10.4016,2.43442 22.795,3.09836 47.8032,34.74584 45.1474,57.54088 -0.6639,6.41803 -0.6639,6.41803 -16.1557,6.41803 -15.0491,0 -15.4918,-0.22132 -15.7131,-5.53278 -0.6639,-14.38522 -9.7377,-26.55733 -25.0081,-33.63929 -9.2951,-4.20491 -9.959,-4.20491 -18.3688,-0.44262 -11.7295,5.31147 -18.8115,14.38522 -20.8033,26.55733 -2.877,19.03275 7.082,30.76224 36.0737,42.71304 25.4508,10.40162 32.5328,14.16391 36.7377,19.47538 2.2131,2.87704 5.5327,5.09015 7.3032,5.09015 1.7705,0 3.0984,0.88525 3.0984,1.9918 0,1.32787 2.2131,4.64753 5.0901,7.74589 11.7295,12.61473 13.7213,38.72944 4.6476,57.98351 -5.9754,12.39342 -16.8197,22.57373 -30.9836,28.54913 -8.8524,3.54097 -37.1802,5.75408 -47.3605,3.54097 z"
     id="path308"
     style="fill:#4e4e4e;stroke:none;stroke-width:0.22131109" />
  <path
     d="m 597.29222,559.19075 c -2.65573,-1.9918 -3.09835,-17.9262 -2.65573,-107.55719 l 0.66393,-105.12277 41.8278,-0.44262 c 37.62289,-0.44262 42.93435,0 54.22122,4.20491 25.22946,9.51638 38.28682,30.09831 37.62288,59.09006 -0.44262,18.81144 -4.20491,27.66389 -16.59833,39.39337 l -7.52458,7.08196 5.9754,5.53278 c 3.31967,3.31966 6.63934,5.75408 7.52458,5.75408 0.66393,0 3.31967,3.9836 5.9754,8.63114 3.9836,7.08195 5.31147,14.60653 7.08195,38.95075 1.54918,21.02455 3.31967,31.64748 5.75409,35.40977 2.87705,4.42622 3.09836,6.19671 0.88525,8.85245 -3.31967,3.9836 -20.13931,4.42622 -23.9016,0.66393 -1.77049,-1.77049 -3.31967,-1.77049 -5.75409,0.22131 -3.54098,2.87704 -13.27866,1.32787 -16.59833,-2.87704 -1.32787,-1.54918 -2.65573,-7.74589 -3.31967,-13.9426 -0.44262,-6.19671 -1.32786,-12.17211 -1.9918,-13.27867 -0.66393,-1.10655 -1.10655,-9.73769 -1.32786,-19.47537 0,-21.9098 -3.76229,-30.76224 -14.16391,-33.19667 -10.40162,-2.43442 -26.55733,-2.87704 -29.43438,-0.88524 -1.32786,1.10655 -2.43442,16.81964 -2.87704,42.27042 -0.22131,22.13111 -0.88525,40.94255 -1.54918,41.82779 -1.32787,2.43442 -36.29502,1.54918 -39.836,-1.10655 z m 71.7048,-120.83586 c 15.49177,-7.52457 21.46717,-27.66388 13.05735,-43.59828 -6.41802,-12.17211 -28.99175,-19.47538 -38.72944,-12.61473 -4.42622,3.09835 -4.86884,5.09015 -4.86884,27.88519 0,19.918 0.66393,25.45078 3.76229,28.77044 4.64753,5.31147 15.27046,5.09016 26.77864,-0.44262 z"
     id="path310"
     style="fill:#4e4e4e;stroke:none;stroke-width:0.22131109" />
  <path
     d="m 766.81652,560.73993 c -1.77049,-0.88525 -3.9836,-2.43443 -4.86885,-3.76229 -2.21311,-3.09836 -2.21311,-205.15538 0,-208.47505 0.88525,-1.32787 9.959,-2.21311 22.57374,-2.21311 l 21.02455,0.22131 0.66393,104.90146 c 0.22131,65.50808 -0.22131,105.7867 -1.54917,107.11456 -2.43443,2.43443 -32.53273,3.9836 -37.8442,2.21312 z"
     id="path312"
     style="fill:#4e4e4e;stroke:none;stroke-width:0.22131109" />
  <path
     d="m 841.39836,559.63337 c -3.54098,-2.65573 -3.76229,-11.06555 -3.31967,-107.99981 l 0.66393,-105.12277 44.26222,-0.44262 c 49.57369,-0.44262 57.09826,0.88524 74.13922,13.49997 5.75408,4.20492 12.61473,12.17211 16.59833,19.25407 6.19671,11.06555 6.63933,13.49998 6.63933,35.18846 0,25.45078 -2.87704,33.63929 -16.37702,49.35238 -8.18851,9.07375 -28.54913,19.25406 -38.28682,19.03275 -10.40162,-0.22131 -39.83599,2.43442 -42.04911,3.76229 -0.88524,0.66393 -1.77048,17.48357 -1.77048,37.40157 v 36.07371 l -5.75409,1.32787 c -3.09836,0.88524 -6.86065,0.44262 -8.40982,-0.66394 -1.9918,-1.54917 -3.54098,-1.54917 -5.31147,0.22131 -1.77049,1.77049 -3.31967,1.77049 -5.9754,-0.44262 -2.65573,-2.21311 -4.20491,-2.21311 -5.9754,-0.44262 -3.31967,3.31967 -4.42622,3.31967 -9.07375,0 z M 924.61133,444.5516 c 3.31966,-1.54917 5.9754,-3.54097 5.9754,-4.20491 0,-0.88524 1.54917,-5.31146 3.54097,-9.959 3.76229,-8.63113 4.86885,-20.36062 2.65574,-24.34422 -0.66394,-1.10655 -1.77049,-4.64753 -2.65574,-7.9672 -2.21311,-9.959 -14.38522,-17.48357 -29.43437,-18.14751 -22.79504,-1.32786 -22.35242,-1.77048 -22.57373,32.97536 -0.22131,16.37702 0.22131,30.98355 0.88524,32.09011 1.9918,3.09835 34.52453,2.65573 41.60649,-0.44263 z"
     id="path314"
     style="fill:#4e4e4e;stroke:none;stroke-width:0.22131109" />
  <path
     d="m 1042.3488,559.19075 c -2.877,-1.9918 -3.3196,-15.9344 -3.7623,-90.95886 l -0.6639,-88.52444 -22.1311,0.44263 c -14.6065,0.22131 -22.57374,-0.66394 -23.68029,-2.21312 -2.87705,-4.42622 -1.9918,-27.44257 1.10655,-29.87699 3.9836,-3.31967 139.42604,-2.87705 141.41784,0.44262 1.9918,2.87704 2.2131,20.36062 0.4426,27.22126 -1.3279,4.64754 -2.6558,4.86885 -23.2377,4.86885 -12.1721,0 -23.0163,0.66393 -24.1229,1.32786 -1.3279,0.88525 -2.2131,34.30322 -2.2131,86.53264 0,54.44253 -0.8853,86.75395 -2.2131,89.63099 -1.9918,3.76229 -4.6476,4.20491 -20.1393,3.76229 -9.5164,0 -19.0328,-1.32787 -20.8033,-2.65573 z"
     id="path316"
     style="fill:#4e4e4e;stroke:none;stroke-width:0.22131109" />
  <path
     d="m 1331.1598,557.86288 c -1.5492,-2.87704 -1.9918,-38.95075 -1.7705,-107.7785 l 0.6639,-103.57359 h 14.3853 c 7.9672,0 15.7131,0.88524 17.2622,1.9918 1.9918,1.32787 2.6558,13.49998 2.6558,46.91795 V 440.568 l 38.2869,-0.44262 38.0655,-0.66393 1.1065,-46.47533 1.1066,-46.25402 15.4918,-0.22131 h 15.4917 l 0.4427,106.67195 c 0.4426,98.48343 0,106.67194 -3.3197,107.7785 -6.6393,1.77048 -23.6803,0.88524 -26.336,-1.32787 -2.2131,-1.77049 -2.8771,-13.72129 -2.8771,-46.25402 0,-28.77044 -0.8852,-44.26222 -2.4344,-45.14746 -1.3279,-0.88524 -18.3688,-1.54918 -38.0655,-1.54918 l -35.8525,0.22131 -0.6639,43.8196 c -0.4426,35.8524 -1.1066,44.26222 -3.9836,47.36057 -3.7623,3.9836 -11.2869,4.86885 -15.7131,1.54918 -1.3279,-1.10656 -3.0984,-1.10656 -3.9836,0.44262 -2.2131,3.54098 -7.3033,2.65573 -9.959,-2.21311 z"
     id="path318"
     style="fill:#4e4e4e;stroke:none;stroke-width:0.22131109" />
  <path
     d="m 2030.9456,559.85468 -4.8689,-1.77049 0.4426,-105.7867 0.664,-105.7867 h 57.5408 57.5409 l 1.1066,8.85244 c 2.4344,16.81965 2.877,16.59834 -43.8196,16.59834 h -41.6065 l -0.4426,28.99175 c -0.6639,39.61468 -2.6557,37.84419 40.4999,37.18026 l 33.1967,-0.66393 0.6639,9.959 c 0.4426,6.63933 -0.4426,11.06555 -2.4344,12.61473 -1.7705,1.54918 -15.7131,2.65573 -37.1803,3.09835 l -34.0819,0.66394 v 34.30322 34.30322 l 40.9426,0.66393 c 45.3687,0.66393 46.4753,0.88524 46.4753,15.04915 0,11.9508 -4.2049,14.16391 -26.5573,14.16391 -10.8443,0 -20.3607,-0.88524 -21.0246,-2.21311 -1.5492,-2.43442 -30.5409,-3.09835 -32.9753,-0.66393 -2.4345,2.43442 -21.0246,2.87704 -22.5738,0.44262 -0.6639,-1.32787 -2.2131,-1.32787 -3.7623,-0.22131 -1.5491,1.32787 -4.6475,1.32787 -7.7458,0.22131 z"
     id="path320"
     style="fill:#4e4e4e;stroke:none;stroke-width:0.22131109" />
  <path
     d="m 478.89079,558.96944 c -25.22946,-6.86065 -39.61468,-21.02456 -49.13106,-48.24582 -2.87705,-7.52458 -1.9918,-111.09817 0.88524,-117.95881 7.08196,-17.26227 9.07376,-20.80324 17.48358,-29.43438 9.51638,-9.73769 13.72129,-11.9508 33.19666,-17.26226 25.45078,-6.86065 60.41793,1.54918 75.02446,18.14751 8.63113,9.959 17.04096,37.18026 13.72129,44.48353 -2.21311,5.31146 -3.31967,5.53277 -19.47538,4.86884 l -17.26226,-0.66393 -3.09836,-9.959 c -6.86064,-22.13111 -12.17211,-26.55733 -30.76224,-26.55733 -12.39342,0 -20.36062,4.86884 -26.33602,16.15571 -3.31966,6.19671 -3.76229,14.60653 -3.76229,60.19661 0,45.8114 0.66394,53.99991 3.9836,60.41793 5.31147,10.40162 15.49178,15.9344 29.43438,15.9344 15.27046,0 22.35242,-5.9754 25.22946,-21.02455 1.10656,-5.9754 3.09836,-11.9508 4.20491,-13.05736 2.87705,-2.87704 14.16391,-3.76229 27.22127,-2.21311 10.40162,1.32787 10.40162,1.32787 10.40162,9.51638 0,13.9426 -6.86064,31.20486 -16.37702,41.82779 -13.9426,15.49178 -47.8032,22.13111 -74.58184,14.82785 z"
     id="path323"
     style="fill:#afafaf;stroke:none;stroke-width:0.22131109" />
  <path
     d="m 1199.4797,559.19075 c -16.1557,-4.86885 -22.1311,-8.18851 -31.6475,-17.48358 -19.918,-19.25406 -23.0163,-31.20486 -22.5737,-89.63099 0,-33.63929 0.8852,-48.46713 3.541,-57.09826 6.8606,-23.45898 27.2212,-43.8196 48.6884,-48.46713 42.0491,-9.29507 77.0163,4.86884 93.8359,37.8442 5.3115,10.62293 5.5328,11.9508 5.9754,65.72939 0.6639,61.96711 -0.4426,67.9425 -15.9344,86.97526 -8.1885,9.959 -25.8934,20.80324 -34.0819,20.80324 -2.4344,0 -5.0902,1.10656 -5.7541,2.21311 -1.7705,2.87705 -30.9835,2.21311 -42.0491,-0.88524 z m 44.0409,-36.73764 c 12.8361,-11.28687 15.7131,-23.68029 15.7131,-67.49989 -0.2213,-40.94255 -2.877,-58.42612 -10.8442,-67.05726 -15.4918,-17.26226 -43.5983,-15.04915 -55.7704,4.20491 l -5.7541,9.29507 0.2213,52.00811 c 0.2213,48.90975 0.6639,52.67204 5.0901,59.75399 6.8607,11.06556 16.1557,15.9344 30.9836,15.9344 11.0655,0 13.7213,-0.88525 20.3606,-6.63933 z"
     id="path325"
     style="fill:#afafaf;stroke:none;stroke-width:0.22131109" />
  <path
     d="m 1551.3644,555.64977 c -21.2458,-10.18031 -33.8606,-25.45078 -39.6147,-47.58188 -2.877,-11.28687 -2.877,-96.49164 0.2213,-109.54899 6.1968,-28.54913 25.8934,-47.13927 56.6557,-53.11467 12.3934,-2.43442 17.4836,-2.65573 28.5491,-0.22131 27.6639,5.75409 43.5983,17.9262 53.9999,41.60649 5.0902,11.50818 5.3115,13.72129 5.3115,66.17201 v 53.99991 l -6.1967,13.9426 c -3.7623,7.9672 -10.1803,17.04095 -15.2705,21.9098 -8.4098,7.30326 -13.0573,9.959 -30.0983,17.04095 -3.3197,1.32787 -13.9426,2.43442 -23.2377,2.43442 -14.1639,0 -19.254,-1.10655 -30.3196,-6.63933 z m 55.3278,-23.23766 c 5.9754,-3.31967 11.0655,-9.07376 15.0491,-16.15571 5.9754,-11.06556 5.9754,-11.06556 5.9754,-58.86875 0,-27.66389 -1.1065,-52.22942 -2.4344,-57.7622 -3.7623,-15.04915 -15.2704,-26.99995 -30.3196,-31.20486 -11.5082,-3.31967 -13.2787,-3.31967 -23.9016,0 -12.3934,3.9836 -26.5573,17.04095 -28.3278,26.11471 -0.4426,2.87704 -1.9918,10.40162 -3.3197,16.81964 -3.3196,16.15571 -2.877,61.74579 0.664,83.8769 3.9836,25.22947 13.2786,37.62289 31.8688,42.49173 9.7376,2.65573 25.4507,0.22131 34.7458,-5.31146 z"
     id="path327"
     style="fill:#afafaf;stroke:none;stroke-width:0.22131109" />
  <path
     d="m 1731.733,556.53501 c -20.3607,-9.29506 -31.6475,-22.79504 -38.9508,-47.13926 -3.9836,-13.49997 -4.6475,-158.45874 -0.4426,-160.89316 2.4344,-1.54918 24.1229,-1.54918 25.6721,0 0.4426,0.44262 0.6639,32.31142 0.4426,70.59824 -0.2213,85.8687 1.9918,98.26212 20.3606,112.86865 7.3033,5.9754 9.7377,6.63934 22.1311,6.19671 10.1803,-0.22131 15.7131,-1.77048 21.0246,-5.31146 7.0819,-4.86885 15.2704,-17.26227 17.7049,-26.33602 0.6639,-2.87705 1.1065,-37.40158 0.8852,-77.01626 -0.4426,-83.43428 -0.4426,-82.54904 15.9344,-82.32773 5.7541,0 11.5082,0.22131 12.6147,0.22131 3.541,0.22132 2.8771,149.16368 -0.8852,162.88497 -8.6311,32.53273 -31.4262,50.23761 -66.6146,51.34417 -15.0492,0.44262 -19.4754,-0.22131 -29.877,-5.09016 z"
     id="path329"
     style="fill:#afafaf;stroke:none;stroke-width:0.22131109" />
  <path
     d="m 1907.6753,559.19075 c -22.5738,-8.63114 -36.5164,-21.24587 -42.2704,-37.8442 -3.3197,-9.51638 -4.205,-23.01635 -1.3279,-23.45897 0.8852,-0.22132 6.8606,-0.66394 13.2787,-0.88525 10.8442,-0.66393 11.7294,-0.22131 12.836,5.31147 3.9836,18.36882 9.7377,26.77864 22.795,33.41797 4.4263,2.21311 16.8197,3.31967 29.4344,2.43442 5.7541,-0.44262 17.041,-11.06555 20.5819,-19.47537 4.4263,-10.62293 4.205,-16.59833 -1.5491,-28.54913 -5.3115,-11.72949 -14.8279,-18.81145 -34.0819,-25.45078 -29.2131,-10.18031 -48.0245,-23.68028 -56.4344,-40.05731 -5.0901,-10.18031 -5.7541,-33.19666 -0.8852,-44.48352 9.7377,-23.45898 34.0819,-37.40158 63.295,-36.07371 26.7786,1.10655 48.0245,15.9344 55.1064,37.84419 1.5492,4.86885 3.7623,11.06556 5.0902,13.72129 3.541,7.74589 -3.3197,13.9426 -15.0492,13.9426 -10.8442,0 -13.2786,-2.21311 -15.2704,-14.16391 -2.2132,-11.28686 -6.6394,-17.9262 -16.1557,-23.68029 -15.9344,-9.95899 -34.082,-6.19671 -45.3688,9.29507 -5.7541,7.52458 -7.5246,22.35242 -3.9836,30.76224 3.9836,9.51638 17.9262,20.80324 32.754,26.77864 28.1065,11.06556 40.4999,18.14751 49.795,28.54913 23.9016,26.77865 18.3688,66.17202 -11.7295,85.20477 -4.8688,3.09836 -10.6229,5.53278 -13.0573,5.53278 -2.4345,0 -5.0902,1.10656 -5.7541,2.21311 -1.7705,3.09836 -33.8606,2.21311 -42.0491,-0.88524 z"
     id="path331"
     style="fill:#afafaf;stroke:none;stroke-width:0.22131109" />
  <path
     d="m 713.03792,558.52681 c -21.90979,-1.10655 -23.23766,-2.87704 -23.45897,-31.64748 -0.44262,-25.45078 -3.76229,-40.49993 -10.62293,-46.91795 -3.9836,-3.76229 -8.63114,-4.86885 -22.79505,-5.75409 -13.94259,-0.66393 -17.70488,-0.22131 -17.70488,1.9918 -0.22131,1.77049 -0.44263,20.58193 -0.66394,41.82779 l -0.44262,38.72945 h -19.918 -19.91799 L 596.8496,453.18274 c -0.44262,-96.93426 -0.22131,-103.57359 3.31967,-105.12277 2.21311,-0.88525 20.36062,-1.54918 40.49993,-1.32787 32.31142,0.22131 38.06551,0.66393 49.35237,5.09016 40.27862,15.71308 51.56548,65.28677 21.9098,94.94245 l -9.959,9.959 5.31147,4.20491 c 17.04095,12.83605 21.90979,23.9016 21.90979,50.01631 0.22131,18.14751 3.31967,35.40977 7.52458,42.27042 1.77049,2.65573 -2.21311,7.52458 -5.31147,6.41802 -0.66393,-0.22131 -8.85244,-0.88524 -18.36882,-1.10656 z M 673.20193,438.35489 c 9.51637,-5.75409 12.17211,-11.72949 12.83604,-26.99995 0.66393,-22.57373 -8.85244,-31.64749 -33.19666,-31.64749 h -13.27867 l -1.10655,28.32782 c -0.66394,15.71309 -0.22131,29.877 0.66393,31.64749 2.65573,4.86884 25.45078,3.9836 34.08191,-1.32787 z"
     id="path333"
     style="fill:#afafaf;stroke:none;stroke-width:0.22131109" />
  <path
     d="m 777.88207,557.86288 -14.38522,-1.10655 -0.66393,-102.68835 c -0.44262,-67.49988 0.22131,-103.57359 1.77049,-105.12277 2.65573,-2.65573 30.76224,-3.31966 36.07371,-0.88524 3.54097,1.77049 3.76228,8.40982 3.31966,105.12277 l -0.66393,103.35227 -5.53278,1.10656 c -3.09835,0.66393 -11.9508,0.88524 -19.918,0.22131 z"
     id="path335"
     style="fill:#afafaf;stroke:none;stroke-width:0.22131109" />
  <path
     d="m 2042.675,557.86288 -13.2786,-1.10655 -0.664,-103.79491 c -0.2213,-61.30317 0.4427,-104.45883 1.5492,-105.12276 1.1066,-0.66394 25.4508,-1.77049 53.7786,-1.9918 46.254,-0.66394 52.4507,-0.44263 55.5491,2.87704 4.2049,4.20491 4.6475,7.30327 1.5492,15.27047 l -2.2131,5.75408 h -38.0655 c -21.0246,0 -39.3934,0.88525 -40.7213,1.77049 -3.7623,2.43443 -3.9836,61.08186 -0.2213,64.18022 1.7705,1.54918 15.7131,2.87704 36.0737,3.09835 l 32.9754,0.66394 v 9.959 9.959 l -32.9754,0.66393 c -19.918,0.22131 -34.3032,1.54918 -36.0737,3.09835 -3.541,2.87705 -4.2049,63.95891 -0.4426,70.59824 1.9918,4.20491 4.6475,4.42622 41.1638,4.20491 22.1312,-0.22131 39.6147,0.44263 40.9426,1.77049 1.1066,1.10656 1.7705,5.53278 1.3279,9.51638 l -0.664,7.52458 -43.1556,1.10655 c -23.6803,0.66393 -49.1311,0.66393 -56.4344,0 z"
     id="path337"
     style="fill:#afafaf;stroke:none;stroke-width:0.22131109" />
  <path
     d="m 839.84918,452.96142 c 0,-87.63919 0.44262,-105.12276 3.09835,-106.00801 6.63934,-2.65573 84.31953,-0.22131 90.95886,2.87705 3.76229,1.54917 9.73769,4.20491 13.49998,5.75408 21.46717,9.29507 37.62288,44.70484 31.8688,70.15562 -4.20492,18.81144 -13.05736,34.74584 -23.68029,42.04911 -14.60653,10.40162 -23.9016,12.83604 -48.90975,12.83604 -17.04096,0 -23.01636,0.66393 -23.9016,3.09836 -0.66393,1.54917 -1.32787,18.59013 -1.54918,38.0655 l -0.44262,34.96716 -20.36062,0.66393 -20.58193,0.66393 z m 83.43428,-6.86064 c 9.07375,-3.76229 16.15571,-17.26226 16.15571,-31.20486 0,-12.39342 -6.86064,-27.8852 -13.9426,-31.64749 -5.75409,-3.09835 -40.94255,-4.86884 -42.71304,-1.9918 -0.88524,1.32787 -1.54918,47.8032 -0.88524,65.72939 0,5.09016 28.54913,4.42623 41.38517,-0.88524 z"
     id="path339"
     style="fill:#afafaf;stroke:none;stroke-width:0.22131109" />
  <path
     d="m 1043.4554,470.66631 c 0,-80.99986 -0.2213,-87.63919 -3.7623,-89.40968 -2.2131,-1.10655 -11.9508,-1.77049 -21.6885,-1.54918 -23.90159,0.66394 -25.45077,-0.44262 -25.45077,-16.59833 0,-10.18031 0.88525,-13.49997 3.9836,-15.27046 4.86887,-2.65574 128.58177,-2.43443 133.89317,0.22131 2.8771,1.54918 3.7623,4.64753 3.7623,13.9426 0,17.04095 -2.4344,18.81144 -26.1147,18.59013 -10.6229,0 -20.5819,0 -21.9098,0 -2.2131,0.22131 -2.877,20.13931 -3.3196,88.30312 l -0.664,87.86051 -19.254,0.66393 -19.4754,0.66393 z"
     id="path341"
     style="fill:#afafaf;stroke:none;stroke-width:0.22131109" />
  <path
     d="m 1332.709,556.3137 c -0.8853,-0.66393 -1.5492,-47.36057 -1.5492,-103.57359 0,-79.22937 0.6639,-102.90965 2.877,-104.45883 1.3279,-1.10656 7.9672,-1.54918 14.3853,-1.10656 l 11.5081,0.88525 v 44.70484 c 0,31.86879 0.664,45.36877 2.6558,47.36057 3.0983,3.09836 78.1229,3.76229 80.1147,0.88525 0.6639,-1.10656 1.3278,-21.9098 1.5492,-46.47533 0.2213,-27.22127 1.1065,-45.36878 2.4344,-46.03271 3.541,-2.21311 23.9016,-1.77049 26.336,0.66393 1.3279,1.32787 1.9918,40.05731 1.5492,104.90146 l -0.664,102.68835 h -14.3852 -14.3852 l -0.6639,-44.26222 c -0.4427,-24.34422 -1.1066,-44.48353 -1.5492,-45.14746 -1.5492,-1.32787 -78.3442,-0.66394 -80.7786,0.88524 -1.3279,0.88524 -2.2132,18.14751 -2.2132,45.59008 v 44.04091 h -12.836 c -7.082,0 -13.7213,-0.66393 -14.3852,-1.54918 z"
     id="path343"
     style="fill:#afafaf;stroke:none;stroke-width:0.22131109" />
  <path
     d="m 497.70223,559.63337 c -30.54093,-2.43442 -51.12286,-14.82784 -61.9671,-37.18026 -5.09016,-9.959 -5.09016,-11.50818 -7.08196,-59.754 -2.21311,-57.9835 2.43443,-79.67199 21.02456,-98.48343 8.63113,-8.40982 25.67208,-16.59833 34.74584,-16.59833 4.20491,0 8.40982,-0.88525 9.07375,-2.21312 1.77049,-2.87704 11.50818,-2.87704 13.27867,0 0.88524,1.32787 4.64753,2.21312 8.40982,1.77049 13.72129,-0.88524 35.40977,11.72949 45.14746,26.55733 4.20491,6.19671 9.73769,31.8688 7.52458,34.30322 -0.88525,0.88525 -9.07376,1.54918 -17.9262,1.10656 l -16.37702,-0.66393 -2.65573,-10.84425 c -4.20491,-16.37702 -10.84425,-21.9098 -27.8852,-22.57373 -10.40162,-0.44262 -15.49178,0.22131 -20.58193,3.54098 -13.72129,8.40982 -16.37702,21.46717 -16.59833,75.24577 0,46.47533 2.43442,58.64744 13.49997,69.49168 6.41802,6.41802 8.18851,6.86064 22.13111,6.86064 13.49998,-0.22131 15.9344,-0.88524 21.02456,-5.97539 3.31966,-3.09836 7.08195,-10.62294 8.63113,-16.59834 l 2.65573,-10.62293 15.04916,-0.66393 c 8.18851,-0.44262 16.37702,-0.22131 17.70488,0.44262 5.53278,1.9918 -4.64753,38.06551 -13.27866,46.69664 -3.54098,3.54098 -20.13931,12.17211 -23.45898,12.17211 -1.77049,0 -5.53278,1.32787 -8.63113,2.87704 -3.9836,1.9918 -10.84424,2.21312 -23.45898,1.10656 z"
     id="path346"
     style="fill:#d0d0d0;stroke:none;stroke-width:0.22131109" />
  <path
     d="m 1207.2256,560.07599 c -1.7705,-0.88524 -8.8525,-3.31966 -15.4918,-5.53278 -20.3606,-6.63933 -36.7376,-25.45077 -41.8278,-48.0245 -2.2131,-9.29507 -3.3197,-90.29493 -1.5492,-104.90146 2.8771,-24.34422 33.8606,-53.9999 56.6557,-53.9999 3.541,0 7.0819,-0.88525 7.7459,-2.21312 0.6639,-1.10655 4.2049,-2.21311 7.7459,-2.21311 3.5409,0 7.0819,1.10656 7.7458,2.21311 0.664,1.32787 4.8689,2.21312 9.0738,2.21312 17.041,0 43.5983,18.81144 51.3442,36.51633 1.7705,3.76228 4.4262,9.29506 5.9754,12.39342 1.9918,4.20491 2.6557,19.25406 2.4344,56.43432 -0.2213,46.91796 -0.6639,51.56549 -5.3115,62.85235 -2.6557,6.63934 -8.6311,16.15571 -13.2786,21.24587 -8.6312,9.29506 -28.9918,20.80324 -36.959,20.80324 -2.6557,0 -5.3115,0.66393 -6.1967,1.32787 -1.9918,2.21311 -24.5655,2.87704 -28.1065,0.88524 z m 32.3114,-32.31142 c 9.0738,-4.20491 14.6065,-11.72949 18.1475,-24.56553 3.541,-11.9508 3.3197,-92.72934 -0.2213,-99.14737 -1.3279,-2.43442 -2.2131,-5.9754 -1.9918,-7.74588 0.6639,-4.64754 -9.7377,-15.27047 -18.3688,-19.03276 -7.3033,-2.87704 -23.0164,-2.87704 -30.9836,0.22131 -9.0737,3.54098 -18.1475,16.37702 -20.8032,29.21307 -3.0984,16.15571 -3.0984,79.8933 0.2213,93.17197 2.6557,10.84424 9.0738,22.1311 14.8278,25.89339 9.7377,6.19671 28.3279,7.08196 39.1721,1.9918 z"
     id="path348"
     style="fill:#d0d0d0;stroke:none;stroke-width:0.22131109" />
  <path
     d="m 1570.8398,559.63337 c -0.4426,-1.10656 -3.0984,-1.77049 -5.9754,-1.77049 -8.8524,0 -27.4426,-11.06555 -36.295,-21.68849 -8.8525,-10.84424 -15.9344,-27.66388 -15.9344,-38.28681 0,-3.31967 -0.8853,-6.86065 -2.2131,-7.52458 -2.8771,-1.77049 -2.8771,-10.62293 0.2213,-13.72129 1.7705,-1.77049 1.7705,-2.87704 0,-3.76229 -3.0984,-1.9918 -3.3197,-52.89335 -0.4426,-58.42613 1.1065,-1.9918 3.0983,-9.51637 4.6475,-16.37702 1.3279,-6.86064 4.6475,-15.93439 7.5246,-19.91799 2.6557,-3.9836 5.5327,-8.85245 6.1967,-11.06556 0.8852,-1.9918 7.9672,-7.30326 15.9344,-11.72949 13.5,-7.52457 15.9344,-8.18851 36.0737,-8.63113 20.8032,-0.66393 22.3524,-0.22131 36.0737,6.86064 19.6967,10.18032 22.1311,12.61474 31.4262,31.20487 l 7.9672,16.15571 v 52.45073 c 0,29.87699 -0.8853,53.55728 -2.2131,55.10646 -1.1066,1.32786 -2.6558,5.09015 -3.541,8.18851 -0.8853,3.09835 -5.3115,10.84424 -9.959,17.26226 -6.418,8.85245 -11.7295,13.27867 -21.4672,17.9262 -7.082,3.31967 -14.8278,5.9754 -17.2623,5.9754 -2.2131,0 -4.8688,0.66393 -5.5327,1.54918 -2.2131,1.9918 -23.9016,2.21311 -25.2295,0.22131 z m 36.0737,-24.34422 c 7.7459,-4.20491 9.7377,-6.41802 16.1557,-18.14751 4.6475,-7.9672 4.8689,-11.50818 4.8689,-59.75399 0.2213,-28.10651 0,-52.00811 -0.2214,-53.33598 -0.2213,-1.10655 -0.4426,-3.09835 -0.2213,-4.20491 0.664,-2.43442 -3.5409,-11.06555 -9.0737,-19.25406 -8.4098,-12.61473 -39.1721,-19.918 -52.8934,-12.39342 -10.6229,5.53277 -15.2704,9.29506 -15.2704,11.72948 0,1.54918 -1.3279,3.09836 -3.0984,3.76229 -1.7705,0.66394 -4.6475,6.63934 -6.6393,13.05736 -4.6476,15.9344 -4.6476,94.94246 0,111.54079 3.3196,12.39342 11.7295,23.23766 21.6885,28.32782 8.4098,4.20491 35.4097,3.31966 44.7048,-1.32787 z"
     id="path350"
     style="fill:#d0d0d0;stroke:none;stroke-width:0.22131109" />
  <path
     d="m 1746.1182,559.85468 c -0.664,-0.88524 -4.4262,-2.43442 -8.1885,-3.09835 -21.2459,-4.86885 -43.8196,-33.19667 -43.8196,-55.32778 0,-2.87704 -0.8853,-5.9754 -2.2131,-6.63933 -1.3279,-0.88524 -2.2131,-26.77864 -2.2131,-70.59824 0,-64.18021 0.2213,-69.49168 3.9836,-72.81135 4.4262,-3.9836 21.4671,-5.09015 23.6802,-1.54917 0.664,1.10655 1.3279,35.85239 1.3279,77.23757 0,77.23757 0.6639,85.20477 8.8524,94.49983 2.4345,2.43442 4.205,5.53278 4.205,6.86065 0,6.41802 28.7704,17.04095 32.0901,11.72948 0.6639,-1.10655 3.7623,-1.54917 6.6393,-0.88524 3.9836,0.88524 6.8606,-0.22131 11.0656,-4.42622 3.0983,-3.09836 6.6393,-5.75409 7.7458,-5.75409 1.3279,0 2.2132,-1.32787 2.2132,-2.87704 0,-1.77049 1.9918,-4.86885 4.2049,-6.86065 2.2131,-1.9918 4.8688,-7.08195 5.7541,-10.84424 0.8852,-3.9836 2.2131,-41.38518 3.0983,-83.43428 l 1.3279,-76.35233 h 11.0655 11.0656 l 1.1065,75.9097 c 0.664,41.8278 0.4427,76.57364 -0.4426,77.23758 -1.1065,0.44262 -1.7705,3.76228 -1.7705,7.30326 0,7.52458 -6.418,19.918 -16.1557,30.98355 -6.8606,7.74589 -25.2294,17.48358 -33.8606,17.70489 -2.4344,0 -5.0901,0.66393 -5.9754,1.32787 -1.9918,1.9918 -23.6803,2.65573 -24.7868,0.66393 z"
     id="path352"
     style="fill:#d0d0d0;stroke:none;stroke-width:0.22131109" />
  <path
     d="m 1918.2982,559.63337 c -0.4426,-1.10656 -2.6557,-1.77049 -4.8688,-1.77049 -6.1967,0 -23.459,-8.18851 -31.2049,-14.60653 -7.5246,-6.41802 -12.836,-15.27047 -17.041,-28.54913 -3.7622,-11.72949 -3.7622,-11.50818 3.541,-15.49178 8.4098,-4.20491 20.1393,-0.88524 20.1393,6.19671 0,8.63114 9.2951,23.9016 18.1475,29.877 7.082,4.64753 11.2869,5.75409 22.5738,5.53278 14.6065,0 27.8852,-5.09016 27.8852,-10.40162 0,-1.77049 1.3278,-3.54098 3.0983,-4.20491 4.6476,-1.77049 7.9672,-19.918 5.3115,-30.09831 -3.541,-13.72129 -13.0574,-23.23767 -29.877,-30.09831 -8.1885,-3.31967 -16.8196,-6.86065 -18.8114,-7.9672 -2.2132,-1.10656 -5.0902,-1.9918 -6.6394,-1.9918 -1.5492,0 -5.3114,-1.9918 -8.4098,-4.42622 -3.0984,-2.43442 -7.082,-4.42622 -8.8524,-4.42622 -6.1968,-0.44263 -21.9098,-22.13111 -23.459,-32.75405 -4.4262,-30.0983 5.5328,-50.68023 30.0983,-62.63103 12.6147,-6.19671 43.1557,-6.86065 55.7704,-1.10656 18.5901,8.18851 34.9671,30.31962 34.9671,47.36057 v 7.30327 l -11.5081,-0.66393 c -11.0656,-0.66394 -11.7295,-0.88525 -13.0574,-7.9672 -1.9918,-9.73769 -11.7295,-23.9016 -19.0327,-27.8852 -8.8525,-4.42622 -31.4262,-3.54098 -39.1721,1.54918 -7.3033,4.86884 -14.3852,19.69668 -14.6065,29.87699 0,17.26227 10.6229,28.99176 35.4097,39.17207 34.7459,14.38522 57.5409,28.99175 57.5409,37.18026 0,1.54918 1.1066,3.9836 2.2131,5.09016 3.7623,3.76228 5.0902,29.87699 2.4344,40.0573 -4.4262,16.37702 -27.6638,36.07371 -42.713,36.07371 -3.0983,0 -6.1967,0.66393 -6.8606,1.32787 -1.9918,1.9918 -21.6885,2.21311 -23.0164,0.44262 z"
     id="path354"
     style="fill:#d0d0d0;stroke:none;stroke-width:0.22131109" />
  <path
     d="m 599.28402,555.42846 c -0.88524,-0.88525 -1.54917,-47.8032 -1.10655,-104.23752 l 0.44262,-102.46704 34.96715,0.44262 c 40.49993,0.44263 51.56549,1.77049 62.40973,7.30327 11.50818,5.9754 23.68029,20.36062 26.55733,31.42617 1.32787,5.31147 3.31967,11.28687 4.42622,13.27867 2.65574,4.86884 2.87705,12.17211 0.22131,13.72129 -1.10655,0.66393 -2.87704,5.53277 -4.20491,10.84424 -2.87704,11.28687 -13.27866,25.67209 -18.59013,25.8934 -5.9754,0 -4.86884,8.63113 1.32787,11.06555 2.87704,0.88525 7.30326,4.64754 10.18031,8.18851 9.07375,11.50818 11.28686,20.58193 11.72949,46.03271 0.44262,17.70489 1.54917,26.33602 4.20491,31.64749 1.9918,3.76228 2.87704,7.08195 2.21311,7.30326 -0.88525,0 -8.85245,0.44262 -17.9262,0.88525 -14.82784,0.66393 -16.59833,0.22131 -20.80324,-4.64754 -4.20491,-4.86884 -4.64754,-7.74589 -4.20491,-26.99995 1.10655,-41.60649 -7.74589,-53.55728 -39.17207,-52.89335 l -14.16391,0.44262 0.44263,40.27862 0.44262,40.49993 -5.31147,1.9918 c -6.63933,2.65573 -31.42617,2.65573 -34.08191,0 z m 74.80315,-115.08177 c 8.85245,-3.54098 14.16391,-14.38522 13.9426,-29.65568 -0.22131,-16.37702 -5.53278,-26.77865 -16.15571,-31.20487 -7.74589,-3.31966 -33.41797,-4.42622 -33.41797,-1.32786 0,0.88524 -0.44263,15.71308 -0.66394,32.97535 l -0.44262,31.42617 5.53278,0.66394 c 8.18851,1.10655 24.56553,-0.44263 31.20486,-2.87705 z"
     id="path356"
     style="fill:#d0d0d0;stroke:none;stroke-width:0.22131109" />
  <path
     d="m 766.3739,555.42846 c -3.54098,-1.9918 -3.76229,-10.18031 -3.9836,-102.68835 0,-94.05721 0.22131,-100.69654 3.76229,-102.46703 4.64753,-2.43442 29.43437,-1.9918 33.41797,0.44262 1.9918,1.10656 2.65573,26.11471 2.65573,103.35228 0,55.77039 -0.66393,101.58179 -1.54917,101.8031 -10.84425,1.54918 -31.42618,1.32787 -34.30322,-0.44262 z"
     id="path358"
     style="fill:#d0d0d0;stroke:none;stroke-width:0.22131109" />
  <path
     d="m 842.94753,554.76453 c -0.44262,-1.32787 -0.66393,-48.24582 -0.44262,-104.23753 l 0.66394,-101.8031 40.94255,0.66393 c 45.36877,0.66394 50.23761,1.32787 62.40972,7.52458 19.69669,10.40162 30.98356,30.98355 30.98356,57.31957 0,14.60654 -1.10656,19.25407 -6.41802,30.09831 -9.07376,18.36882 -10.40163,20.58193 -12.39343,20.58193 -1.10655,0 -4.86884,1.9918 -8.40982,4.42622 -10.62293,7.74589 -28.10651,11.72949 -47.80319,11.50818 -10.62294,-0.22131 -18.59013,0.44262 -19.47538,1.77049 -0.88524,1.32787 -1.32787,18.36882 -1.32787,37.62289 0.22132,27.44257 -0.22131,35.40977 -2.43442,35.63108 -12.83604,1.54918 -35.63108,0.66393 -36.29502,-1.10655 z M 904.02939,450.527 c 17.48358,0.66394 22.35242,-0.88524 29.65569,-10.62293 4.86884,-6.41802 5.9754,-9.959 5.9754,-20.80324 -0.22131,-18.59013 -0.44262,-21.02456 -4.42622,-28.10651 -6.19671,-10.84424 -16.37702,-14.82784 -36.51633,-14.16391 l -17.26227,0.66393 v 35.8524 c 0,36.29502 0.88525,42.49173 5.53278,38.50813 1.54918,-1.10656 9.07376,-1.77049 17.04095,-1.32787 z"
     id="path360"
     style="fill:#d0d0d0;stroke:none;stroke-width:0.22131109" />
  <path
     d="m 1043.0128,467.56796 -0.664,-90.07362 -23.2376,-1.10655 -23.2377,-1.10656 v -7.74589 c -0.22131,-4.20491 0.44262,-10.18031 1.10655,-13.05735 l 1.32787,-5.31147 h 65.06548 l 65.2868,-0.22131 0.6639,13.72129 0.6639,13.72129 h -21.9098 c -13.9426,0 -22.5737,0.88524 -24.3442,2.65573 -1.9918,1.9918 -2.6557,24.78684 -2.6557,89.40968 v 86.75395 l -5.9754,1.32786 c -3.541,0.66394 -11.9508,1.10656 -18.8115,1.10656 l -12.836,-0.22131 z"
     id="path362"
     style="fill:#d0d0d0;stroke:none;stroke-width:0.22131109" />
  <path
     d="m 1335.1434,555.42846 c -2.2131,-1.54918 -2.877,-22.13111 -2.877,-102.68835 0,-113.08996 -1.1066,-105.56539 16.5983,-104.68014 l 9.959,0.66393 1.1065,47.58189 1.1066,47.58188 h 41.6066 41.6065 l 0.4426,-45.8114 c 0.2213,-25.00815 1.1065,-46.25401 1.7705,-47.13926 3.7623,-3.54098 17.7049,-3.76229 23.0163,-0.22131 l 5.7541,3.76229 -0.6639,99.58999 c -0.4426,80.55724 -1.3279,99.8113 -3.541,101.36048 -3.541,2.21311 -20.3606,1.77049 -24.1229,-0.44262 -1.7705,-1.10656 -2.6557,-14.60654 -2.6557,-44.70484 0,-23.68029 -0.4427,-44.04091 -1.1066,-44.92615 -0.6639,-1.10656 -19.4754,-1.9918 -41.6065,-1.77049 l -40.5,0.22131 -0.6639,47.13926 -0.4427,46.91795 -11.0655,-0.22131 c -5.9754,-0.22131 -12.1721,-1.32787 -13.7213,-2.21311 z"
     id="path364"
     style="fill:#d0d0d0;stroke:none;stroke-width:0.22131109" />
  <path
     d="m 2037.8062,556.09239 -7.3033,-0.66393 V 452.5188 349.83046 l 6.1967,-0.22131 c 3.3197,0 27.2213,0 53.336,0.22131 41.8278,0.22131 47.8032,0.66393 50.4589,3.9836 3.541,4.86884 3.541,6.19671 -0.6639,10.18031 -2.877,2.87704 -9.959,3.54097 -41.8278,3.54097 -25.2295,0 -38.9507,0.88525 -40.0573,2.43443 -1.1065,2.21311 -1.5492,66.17201 -0.2213,67.49988 0.2213,0.44262 15.2705,0.88524 33.418,1.32786 18.1475,0.44263 34.3032,1.54918 35.6311,2.87705 1.7704,1.32787 2.4344,5.31146 1.7704,9.959 l -1.1065,7.74589 h -34.5245 -34.7459 l -1.1065,35.63108 c -0.664,19.69669 -0.8853,37.40158 -0.4427,39.39338 0.664,3.09835 5.5328,3.54097 39.3934,3.54097 22.5737,0 40.4999,0.88525 43.1557,2.21311 2.6557,1.54918 4.2049,4.64754 4.2049,8.63114 0,5.09015 -1.3279,6.63933 -5.7541,7.74588 -5.5328,1.54918 -85.8687,1.10656 -99.8113,-0.44262 z"
     id="path366"
     style="fill:#d0d0d0;stroke:none;stroke-width:0.22131109" />
  <g
     id="g1058">
    <path
       style="fill:#f8f8f8;stroke:none;stroke-width:0.22131109"
       id="path369"
       d="m 485.75143,556.3137 c -5.53277,-0.44262 -10.84424,-1.77049 -11.95079,-3.09835 -1.32787,-1.10656 -3.76229,-1.9918 -5.75409,-1.9918 -5.09016,0 -20.80324,-13.9426 -26.77864,-23.45898 -7.9672,-13.05735 -10.62294,-31.86879 -10.84425,-74.13921 0,-57.54089 2.87705,-69.49168 22.35242,-88.74575 13.27867,-13.05735 26.33602,-17.26226 52.89335,-16.37702 35.63109,1.10656 55.54909,17.04095 59.53269,47.13926 l 1.77048,11.72949 h -15.93439 -15.71309 l -3.09836,-11.06555 c -3.9836,-14.60654 -11.50817,-21.46718 -24.34422,-22.35242 -19.03275,-1.10656 -23.68028,0 -30.54093,6.63933 -11.50817,11.72949 -13.72128,23.23766 -13.72128,75.24577 0,25.45077 0.88524,46.91795 1.9918,47.58188 0.88524,0.66394 2.43442,3.9836 3.09835,7.30327 1.77049,7.9672 10.18031,17.48357 17.9262,20.58193 12.83604,4.86884 32.09011,1.77049 38.28682,-6.19671 4.64753,-5.75409 9.51637,-18.14751 9.51637,-23.68029 0,-4.64753 0.88525,-5.09015 15.49178,-5.31146 l 15.49178,-0.22131 v 13.05735 c 0,8.85244 -1.10656,13.9426 -3.31967,15.71309 -1.77049,1.54918 -3.31967,4.20491 -3.31967,5.75409 0,4.42622 -17.48357,20.80324 -22.1311,20.80324 -2.21312,0 -4.42623,1.10655 -4.86885,2.21311 -0.66393,2.43442 -30.31962,4.20491 -46.03271,2.87704 z m 70.15562,-39.83599 c -0.88524,-0.66394 -2.21311,-0.66394 -3.09836,0 -0.66393,0.88524 0,1.54917 1.54918,1.54917 1.54918,0 2.21311,-0.66393 1.54918,-1.54917 z" />
    <path
       style="fill:#f8f8f8;stroke:none;stroke-width:0.22131109"
       id="path371"
       d="m 1205.0125,556.53501 c -7.5246,-0.88524 -10.1803,-1.9918 -23.6803,-7.96719 -10.8443,-4.86885 -23.0164,-20.36063 -28.1065,-35.40978 -5.3115,-16.15571 -5.5328,-102.90966 -0.2213,-119.95061 2.2131,-6.86064 4.8688,-12.39342 5.7541,-12.39342 1.1065,0 1.9918,-1.54918 1.9918,-3.31967 0,-5.31146 13.0573,-17.26226 24.7868,-22.79504 15.0492,-6.86064 47.5819,-8.63113 63.295,-3.09835 6.1967,2.21311 13.2786,5.75408 15.4917,7.74588 2.2132,1.9918 4.8689,3.76229 5.5328,3.76229 3.0984,0 16.8197,16.81964 17.041,20.58193 0,1.9918 0.8852,3.76229 1.9918,3.76229 3.541,0 5.0901,16.15571 6.1967,61.96711 0.8852,44.70484 0.4426,50.0163 -6.8607,70.37692 -3.0983,8.63114 -18.3688,24.78685 -27.2212,28.99176 -3.3197,1.54917 -7.7459,3.76228 -9.7377,4.64753 -4.4262,2.21311 -35.8524,4.20491 -46.254,3.09835 z m 32.754,-26.33602 c 9.959,-4.20491 18.1475,-11.72948 18.1475,-16.59833 0,-1.9918 0.8853,-4.42622 2.2131,-5.75409 2.8771,-2.87704 3.0984,-103.13096 0.4427,-108.66374 -1.1066,-2.21311 -3.541,-6.86064 -5.0902,-10.40162 -1.7705,-3.54098 -5.3115,-7.30327 -7.9672,-8.63113 -5.9754,-2.65574 -6.6393,-5.31147 -1.1065,-6.41803 1.9918,-0.44262 -5.5328,-0.44262 -17.041,-0.22131 -18.1475,0.44263 -21.4672,1.32787 -27.8852,5.9754 -3.9836,3.09836 -9.5164,10.40162 -12.3934,15.9344 -4.4262,9.51638 -5.0902,14.60653 -5.9754,51.34417 -1.1066,41.8278 1.1065,61.7458 7.7459,67.05726 1.5491,1.32787 2.877,3.76229 2.877,5.31147 0,3.31967 9.2951,9.73769 17.4836,12.17211 9.2951,2.87704 19.6967,2.43442 28.5491,-1.10656 z" />
    <path
       style="fill:#f8f8f8;stroke:none;stroke-width:0.22131109"
       id="path373"
       d="m 1564.6431,556.3137 c -6.1967,-0.66393 -16.1557,-4.64753 -18.8115,-7.30326 -0.6639,-0.66394 -3.0983,-2.21311 -5.5327,-3.54098 -6.4181,-3.54098 -21.0246,-23.45898 -21.0246,-28.54913 0,-2.65573 -1.3279,-5.9754 -2.6557,-7.30327 -2.2131,-2.21311 -2.8771,-16.15571 -2.8771,-54.22121 0,-53.55729 1.3279,-63.95891 10.4017,-77.23757 2.2131,-3.09836 3.9836,-6.41803 3.9836,-7.30327 0,-2.87704 11.9508,-11.9508 22.1311,-17.04095 8.1885,-4.20491 13.7213,-4.86885 32.0901,-4.86885 19.0327,0 23.6803,0.66394 33.1966,5.31147 12.8361,6.19671 29.877,22.79504 29.877,28.99175 0,2.21311 0.8853,4.20491 1.7705,4.20491 4.6476,0 7.082,22.57373 7.082,65.7294 0,53.9999 -2.4344,65.06546 -18.3688,83.65559 -11.2869,13.27866 -23.459,18.36882 -45.8114,19.47537 -10.4017,0.66394 -21.6885,0.66394 -25.4508,0 z m 40.4999,-18.36882 c 0.4426,-1.32786 1.7705,-2.21311 3.0984,-2.21311 3.7623,0 13.4999,-11.28686 18.3688,-21.02455 3.9836,-7.74589 4.4262,-14.38522 5.0901,-55.7704 0.664,-37.62288 0.2214,-49.35237 -2.6557,-58.86875 -4.2049,-14.60653 -15.2705,-30.31962 -21.2459,-30.31962 -2.4344,0 -4.4262,-0.88524 -4.4262,-2.21311 0,-1.32786 -8.1885,-2.21311 -19.918,-2.21311 -13.2786,0 -19.918,0.88525 -19.918,2.43442 0,1.54918 -2.2131,1.9918 -5.5327,1.54918 -3.0984,-0.66393 -4.8689,-0.22131 -4.205,0.88525 0.8853,1.10655 -0.6639,3.54097 -3.0983,5.31146 -5.3115,3.54098 -11.5082,15.04916 -11.5082,21.02456 0,2.21311 -0.8852,4.64753 -2.2131,5.31146 -2.877,1.77049 -2.877,97.15557 -0.2213,102.46704 1.3279,1.9918 2.6557,6.41802 3.3197,9.73769 1.7704,7.74588 19.6966,25.45077 27.4425,26.77864 9.2951,1.77049 36.959,-0.44263 37.6229,-2.87705 z" />
    <path
       style="fill:#f8f8f8;stroke:none;stroke-width:0.22131109"
       id="path375"
       d="m 1746.1182,556.3137 c -4.8689,-0.44262 -13.0574,-2.87704 -18.1475,-5.53277 -9.5164,-4.64754 -22.7951,-17.48358 -22.7951,-21.68849 0,-1.10656 -0.8852,-2.21311 -2.2131,-2.21311 -1.1065,0 -2.2131,-1.77049 -2.2131,-3.9836 0,-2.21311 -1.3279,-5.31147 -2.6557,-6.63933 -2.2131,-2.21311 -2.8771,-22.13111 -2.8771,-84.09822 v -81.22117 l 10.623,-0.66393 10.4016,-0.66393 v 75.9097 c 0,77.01626 0.4426,82.10641 8.6311,96.93426 4.2049,7.30326 15.9344,17.70488 20.3606,17.70488 1.7705,0 4.4263,1.10656 5.7541,2.43443 1.9918,1.9918 5.7541,1.9918 15.4918,0 13.2787,-2.87705 21.4672,-8.40983 28.5491,-19.03276 9.0738,-13.9426 9.7377,-19.69668 9.7377,-94.49983 0,-39.61469 0.664,-73.6966 1.3279,-75.6884 0.8852,-2.43442 4.2049,-3.54097 11.0655,-3.54097 h 9.7377 v 78.56543 c 0,53.55729 -0.8852,80.33593 -2.4344,84.54084 -7.0819,17.04095 -9.2951,20.58193 -17.4836,27.8852 -4.8688,4.42622 -12.1721,9.51637 -16.377,11.28686 -8.4098,3.54098 -30.7622,5.75409 -44.4835,4.20491 z" />
    <path
       style="fill:#f8f8f8;stroke:none;stroke-width:0.22131109"
       id="path377"
       d="m 1914.3146,556.53501 c -9.0737,-1.32786 -25.2295,-9.29506 -32.754,-16.15571 -7.5246,-6.86064 -15.7131,-23.45897 -14.1639,-29.21306 0.6639,-2.21311 0,-4.42622 -1.3279,-4.86884 -4.8689,-1.54918 1.3279,-5.9754 8.4098,-5.9754 11.5082,0 14.3852,1.9918 14.3852,9.73769 0,13.27866 11.0656,25.67208 28.7705,31.64748 9.7377,3.54098 14.6065,3.54098 24.3442,0 10.8442,-3.9836 13.7213,-5.9754 20.5819,-15.04915 4.8689,-6.41802 5.9754,-10.40162 5.9754,-20.13931 0,-11.50818 -4.2049,-24.34422 -9.0737,-27.22127 -1.1066,-0.88524 -1.3279,-2.43442 -0.664,-3.76228 0.8853,-1.32787 0.4427,-1.77049 -0.8852,-0.88525 -1.3279,0.66393 -2.8771,0.44262 -3.7623,-0.88524 -0.6639,-1.10656 -5.0901,-3.76229 -9.5164,-5.75409 -4.4262,-1.77049 -9.959,-4.42622 -11.9508,-5.53278 -2.2131,-1.10655 -5.9754,-1.9918 -8.4098,-1.9918 -2.4344,0 -4.4262,-0.88524 -4.4262,-2.21311 0,-1.10655 -1.5492,-2.21311 -3.3197,-2.21311 -5.5328,0 -24.1229,-11.50818 -33.418,-20.80324 -5.5327,-5.53278 -9.7376,-12.17211 -10.6229,-16.81965 -2.877,-13.72128 -3.3197,-26.33602 -1.1065,-27.66388 1.1065,-0.88525 1.9918,-4.20491 1.9918,-7.9672 0,-3.54098 1.1065,-6.41802 2.2131,-6.41802 1.3278,0 2.2131,-1.32787 2.2131,-2.65574 0.2213,-5.09015 9.959,-13.94259 21.0245,-19.25406 7.082,-3.31967 16.8197,-5.53278 27.6639,-6.19671 15.0492,-1.10656 18.1475,-0.66393 29.877,5.09015 7.3033,3.31967 15.2705,8.18851 17.7049,10.62294 5.7541,5.9754 12.6147,20.13931 14.3852,30.76224 l 1.5492,8.18851 h -10.6229 c -9.2951,0 -10.8443,-0.66394 -10.8443,-4.42622 0,-5.75409 -7.9672,-19.69669 -15.0491,-26.77865 -10.623,-9.95899 -36.7377,-10.40162 -48.0245,-0.66393 -9.2951,7.9672 -12.1721,15.49178 -12.1721,30.76224 0,13.05736 0.4426,14.60653 8.4098,23.01636 7.7459,8.40982 14.1639,11.72948 54.2212,27.66388 3.3197,1.32787 5.9754,3.09836 5.9754,3.9836 0,1.10656 1.1065,1.77049 2.6557,1.77049 3.3197,0 17.4836,15.04915 21.6885,23.01635 2.2131,4.42623 3.3197,12.61474 3.3197,25.67209 -0.2213,16.59833 -0.8853,20.13931 -5.5328,26.77864 -6.8606,9.73769 -8.6311,11.28687 -16.5983,15.27047 -3.541,1.77049 -7.082,3.9836 -7.7459,4.86884 -1.5492,1.77049 -36.5163,3.9836 -45.3688,2.65573 z" />
    <path
       style="fill:#f8f8f8;stroke:none;stroke-width:0.22131109"
       id="path379"
       d="M 600.8332,452.5188 V 349.16652 l 39.39338,1.10656 c 30.76224,0.88524 41.16386,1.77049 46.91795,4.64753 3.9836,1.9918 8.40982,3.76229 9.73768,3.76229 3.54098,0 19.47538,17.26226 23.45898,24.78684 1.54918,3.54098 2.87704,13.49998 2.87704,24.34422 0,21.46718 -3.9836,30.76224 -16.81964,39.17206 -9.29506,6.19672 -10.62293,12.61474 -2.87704,15.49178 7.08195,2.87705 18.14751,16.81964 20.13931,25.45078 0.88524,3.76229 2.21311,18.36882 2.87704,32.31142 0.88524,13.94259 2.87704,27.66388 4.42622,30.54093 l 2.87705,4.86884 h -17.9262 -17.70489 l -3.31967,-7.9672 c -2.21311,-5.53278 -3.31966,-15.49178 -3.31966,-30.76224 0,-19.03275 -0.88525,-24.34422 -4.64753,-31.64749 -6.19672,-11.28686 -15.9344,-15.9344 -34.08191,-15.9344 -11.9508,0 -14.60653,0.66394 -16.59833,4.42623 -1.54918,2.65573 -2.43443,18.59013 -2.21312,40.49993 0,19.69668 0.22132,37.18026 0,38.72944 0,1.77049 -4.86884,2.65573 -16.59833,2.65573 H 600.8332 Z m 75.02446,-11.28686 c 9.51638,-5.53278 16.59833,-21.02456 15.04916,-33.19667 -1.32787,-12.39342 -8.18852,-25.00815 -16.15571,-29.65568 -9.29507,-5.53278 -35.40978,-5.75409 -38.06551,-0.22131 -2.43442,4.42622 -3.54098,57.54088 -1.54918,63.07366 2.21311,5.53277 30.98355,5.31146 40.72124,0 z" />
    <path
       style="fill:#f8f8f8;stroke:none;stroke-width:0.22131109"
       id="path381"
       d="m 766.81652,455.61716 c 0,-55.10646 0.66393,-101.36048 1.77049,-102.68835 0.88524,-1.32786 7.74589,-2.21311 15.9344,-2.21311 l 14.38522,0.22131 0.66393,102.46704 0.44262,102.24572 h -16.59833 -16.37702 z" />
    <path
       style="fill:#f8f8f8;stroke:none;stroke-width:0.22131109"
       id="path383"
       d="M 844.2754,452.96142 V 349.83046 l 42.71304,0.66393 c 41.8278,0.44262 42.71304,0.44262 55.10646,6.63933 13.49998,6.86065 23.9016,15.71309 23.9016,20.58193 0,1.77049 0.88524,3.09836 1.77049,3.09836 3.31967,0 7.52458,20.58193 7.52458,36.51633 -0.22132,11.9508 -1.54918,19.03275 -5.31147,26.99995 -4.64753,9.73769 -13.05735,20.58193 -16.15571,20.58193 -0.66393,0 -3.31967,1.9918 -5.75409,4.20491 -5.53278,5.09016 -13.9426,6.63934 -44.48353,8.63114 -12.83604,0.88524 -24.12291,2.21311 -25.00815,2.87704 -0.66393,0.88524 -1.54918,17.70489 -1.77049,37.62289 l -0.44262,36.29501 -15.9344,0.66394 -16.15571,0.66393 z m 74.58184,5.9754 c -0.88525,-0.66393 -2.21311,-0.66393 -3.09836,0 -0.66393,0.88525 0,1.54918 1.54918,1.54918 1.54918,0 2.21311,-0.66393 1.54918,-1.54918 z m 8.40982,-10.40162 c 9.959,-7.74589 14.38522,-18.14751 14.38522,-34.96715 0,-27.22126 -12.83604,-39.39337 -42.27042,-39.39337 -12.17211,0 -17.70489,0.88524 -19.69669,3.31966 -1.77048,2.21311 -2.43442,13.49998 -2.43442,37.8442 0.22131,19.25406 0.88525,35.63108 1.54918,36.73764 0.66393,0.88524 10.18031,1.77049 21.24587,1.77049 17.92619,0 21.02455,-0.66393 27.22126,-5.31147 z" />
    <path
       style="fill:#f8f8f8;stroke:none;stroke-width:0.22131109"
       id="path385"
       d="m 1045.6685,467.56796 c 0,-65.50809 -0.6639,-88.74575 -2.6557,-90.73755 -1.7705,-1.77049 -10.4017,-2.65573 -24.5656,-2.65573 h -21.68846 l 0.66393,-11.50818 0.66394,-11.72949 64.62279,-0.66393 64.8442,-0.44262 1.1066,5.09015 c 0.8852,2.87705 1.1065,8.18851 0.6639,11.72949 l -0.6639,6.41802 -23.2377,1.10656 -23.2377,1.10655 -0.6639,90.29493 -0.4426,90.07361 h -17.7049 -17.7049 z" />
    <path
       style="fill:#f8f8f8;stroke:none;stroke-width:0.22131109"
       id="path387"
       d="m 1336.0286,453.40405 0.664,-102.46704 10.6229,-0.66393 10.4016,-0.66393 v 46.47532 c 0,30.31962 0.8853,46.91796 2.4345,47.8032 3.7622,2.43442 79.8933,3.31967 84.3196,0.88524 2.4344,-1.32786 3.9836,-4.20491 3.7623,-7.08195 -0.2214,-2.65573 -0.2214,-23.45898 -0.2214,-46.25402 l 0.4427,-41.60648 h 9.959 c 8.4098,0 9.959,0.66393 11.0655,4.86884 0.664,2.87704 0.8853,48.90975 0.664,102.46704 l -0.664,97.37687 -11.0655,0.66394 -11.0656,0.66393 v -43.81959 c 0,-24.12291 -0.6639,-45.59009 -1.5492,-47.58189 -1.5491,-3.54098 -5.7541,-3.9836 -42.2704,-3.9836 -28.5492,0 -41.3852,0.88525 -43.1557,2.65573 -1.9918,1.9918 -2.6558,15.49178 -2.6558,47.58189 v 44.92615 h -11.0655 -11.0656 z" />
    <path
       style="fill:#f8f8f8;stroke:none;stroke-width:0.22131109"
       id="path389"
       d="m 2030.5029,454.06798 c 0,-79.22937 0.664,-101.8031 2.8771,-102.68835 1.3278,-0.44262 25.2294,-1.10655 52.8933,-1.32786 l 50.2376,-0.44262 1.5492,5.75408 c 0.8853,3.31967 0.4426,6.86065 -0.4426,7.74589 -1.1066,1.10656 -19.918,2.43442 -41.8278,2.65573 l -39.836,0.66394 -1.1065,9.959 c -0.664,5.53277 -0.664,21.9098 0,36.51633 l 1.1065,26.55733 34.3032,0.66393 c 35.8524,0.66393 37.6229,1.10656 37.6229,11.06556 0,4.86884 -0.2213,4.86884 -35.1885,4.86884 -30.0983,0 -35.4097,0.44262 -36.5163,3.54098 -0.6639,1.9918 -1.3278,19.25406 -1.3278,38.50813 0,19.25406 0.6639,36.51633 1.3278,38.50813 1.1066,3.09835 7.082,3.54097 42.0491,3.54097 h 40.7213 v 7.74589 7.74589 h -54.2213 -54.2212 z" />
  </g>
  <path
     id="path660"
     style="fill:#ffffff;stroke-width:6.55736589"
     d="m 200.45942,183.9022 c -0.3981,-0.0628 -0.8202,0.0263 -1.17372,0.28441 L 0.86295287,328.39015 c -0.38570097,0.2802 -0.58970553,0.69892 -0.62819153,1.13734 -0.22775124,0.37744 -0.3077552,0.83494 -0.15956529,1.28867 L 75.86745,564.14042 c 0.145623,0.45167 0.482414,0.77648 0.884735,0.94931 0.288723,0.33193 0.701667,0.55482 1.178438,0.55482 H 323.19676 c 0.47652,0 0.88945,-0.22321 1.17817,-0.55482 0.40263,-0.17357 0.73829,-0.4977 0.88498,-0.94931 L 401.0519,330.81618 c 0.14783,-0.45371 0.0657,-0.9112 -0.15957,-1.28867 -0.0367,-0.43844 -0.24256,-0.85712 -0.62801,-1.13734 L 201.84126,184.18656 c -0.3859,-0.28073 -0.85001,-0.34714 -1.27911,-0.2478 -0.0347,-0.004 -0.0657,-0.0314 -0.10092,-0.0367 z" />
  <circle
     id="circle662"
     r="53.247223"
     style="fill:#000000;stroke-width:6.55736589"
     cx="200.56248"
     cy="513.86993" />
</svg>
