<?xml version="1.0" encoding="utf-8"?>
<svg
	xmlns:dc="http://purl.org/dc/elements/1.1/"
	xmlns:cc="http://creativecommons.org/ns#"
	xmlns:rdf="http://www.w3.org/1999/02/22-rdf-syntax-ns#"
	xmlns:svg="http://www.w3.org/2000/svg"
	xmlns="http://www.w3.org/2000/svg"
	height="751"
	width="2146">
	<path
		d="m 8.1007444,194.7623 c -2.457047,1.2897 -4.5653864,3.33306 -5.9548518,5.77447 L 0,204.32096 v 171.05816 171.05286 l 1.9634917,3.64089 c 1.078311,1.99559 3.3905102,4.52192 5.1394127,5.60994 l 3.1812856,1.97436 h 46.490762 c 50.192428,0 49.114118,0.0955 53.486368,-4.68645 4.10402,-4.48477 4.17377,-6.11945 4.16304,-94.73215 -0.005,-45.92511 0.15021,-83.66617 0.35407,-83.86786 0.20386,-0.19637 4.72096,4.93591 10.04278,11.41096 5.32181,6.47505 9.89256,11.96823 10.1608,12.21237 0.26287,0.24414 2.88622,3.22691 5.83146,6.63428 2.93987,3.40736 5.55786,6.39013 5.81537,6.63427 0.25751,0.24415 1.66307,2.03275 3.12764,3.98057 1.46457,1.94782 6.51815,8.11505 11.22838,13.70907 4.71023,5.59402 15.58454,18.53351 24.15739,28.75029 l 15.5899,18.57598 0.53111,34.05771 c 0.81544,52.36301 -4.68341,47.94193 59.1408,47.57572 49.96711,-0.2866 49.09802,-0.16453 52.92844,-7.38793 l 1.84547,-3.48167 V 375.43751 c 0,-192.86105 0.62231,-175.78708 -6.57716,-180.21877 l -3.25639,-2.0009 -45.79871,-0.25476 c -65.02055,-0.3556 -58.34682,-8.30611 -58.35755,69.46883 -0.005,29.80116 -0.34335,54.18345 -0.75643,54.18345 -0.70278,0 -9.37755,-9.53743 -22.85912,-25.14655 -3.39051,-3.9275 -10.27883,-11.71879 -15.30558,-17.31281 -9.37755,-10.445 -34.42548,-38.76009 -51.65163,-58.38163 -20.713231,-23.60209 -18.980423,-22.98643 -65.095654,-22.99705 -33.143311,-0.005 -33.669054,0.0265 -37.4190016,1.98498 M 450.55697,194.13602 c -8.69087,2.67494 -12.11357,7.21279 -18.99652,25.1731 -2.41949,6.31583 -4.34543,11.28888 -11.31422,29.19081 -2.55361,6.57059 -5.40765,13.93198 -6.34111,16.36808 -0.9281,2.4308 -3.10618,7.98236 -4.83362,12.33445 -1.72744,4.35208 -3.13837,8.22119 -3.13837,8.60333 0,0.37683 -1.20706,3.29591 -2.68236,6.48036 -1.47531,3.18976 -2.68237,6.18845 -2.68237,6.66612 0,0.48297 -0.75643,2.56348 -1.67916,4.62276 -0.92274,2.06459 -2.36585,5.74263 -3.19738,8.17343 -0.8369,2.4308 -1.8562,5.21719 -2.25855,6.19376 -0.40772,0.97126 -1.63088,4.15571 -2.71992,7.07479 -1.08368,2.91908 -2.67164,6.89965 -3.51927,8.84747 -1.40019,3.20038 -4.99456,14.18143 -9.7048,29.63133 -0.96565,3.16322 -2.24782,8.53433 -2.85403,11.9417 -0.60622,3.40736 -1.43239,7.18624 -1.83474,8.40164 -2.29611,6.89434 -2.74674,23.46411 -2.47314,91.11249 l 0.28433,70.32332 2.23709,4.41047 c 4.19522,8.27427 2.06006,7.93459 52.06472,8.23181 64.04953,0.38744 58.32,5.22781 58.34145,-49.35371 0.0107,-24.6105 0.33798,-38.71232 0.91201,-39.1263 0.78861,-0.5732 88.72729,-1.02433 89.11892,-0.45644 0.0805,0.12207 0.38089,17.7374 0.67059,39.14223 0.73497,55.27678 -5.60078,50.27719 63.10533,49.81545 l 42.02194,-0.2813 3.71776,-2.10704 c 7.43016,-4.20879 7.01171,0.97656 7.01171,-86.7604 v -77.42996 l -2.45705,-11.05536 c -4.42054,-19.84975 -13.44402,-49.10956 -15.95471,-51.70489 -0.44527,-0.46175 -0.81008,-1.68776 -0.81008,-2.72801 0,-1.03495 -0.2736,-2.16012 -0.61157,-2.49449 -0.33798,-0.32906 -1.10514,-1.88944 -1.71135,-3.46044 -0.60085,-1.5763 -2.48387,-6.44321 -4.17376,-10.82183 -1.6899,-4.37862 -5.98168,-15.52421 -9.5385,-24.76973 -3.55145,-9.24022 -8.57284,-22.17971 -11.164,-28.74499 -5.64907,-14.34065 -13.74445,-35.07144 -17.30663,-44.31696 -3.29394,-8.56087 -6.16944,-12.24953 -12.04382,-15.47113 l -4.6995,-2.5741 -77.33797,-0.17515 c -64.8596,-0.1433 -78.00856,0.0319 -81.44735,1.09333 m 87.05886,97.24256 c 4.07719,1.68245 6.01923,5.01551 9.58141,16.38931 1.59869,5.10574 3.63192,11.47996 4.51174,14.15489 0.88518,2.67494 2.65554,8.44411 3.93771,12.82273 1.27681,4.37862 2.71992,8.65641 3.20274,9.50029 0.47747,0.84388 0.87446,2.03805 0.87446,2.65371 0,0.61566 1.81328,6.63427 4.02354,13.3747 2.21027,6.74573 4.01819,13.01379 4.01819,13.93197 0,1.9266 -77.04291,2.69617 -78.23924,0.7855 -0.30579,-0.49359 0.24141,-3.17914 1.21242,-5.97085 0.97102,-2.79701 2.64482,-8.06727 3.72313,-11.71878 1.07831,-3.6462 2.3122,-7.43039 2.74674,-8.40165 0.43991,-0.97125 1.36264,-3.95933 2.05469,-6.63427 0.69205,-2.67494 2.06006,-7.25525 3.03108,-10.17433 0.97638,-2.91908 3.05789,-9.48436 4.63512,-14.5954 1.57724,-5.10574 3.29931,-10.67853 3.82506,-12.38222 2.77893,-8.96954 5.49348,-12.7325 10.19835,-14.12835 4.14157,-1.22601 13.26698,-1.01372 16.66286,0.39275"
		style="fill:#17abaa" />
	<path
		d="m 1751.2307,2.74513 c -5.5578,4.53254 -5.9065,6.18315 -5.9065,28.12402 V 50.358 l -86.9516,0.069 c -110.2077,0.0902 -105.932,-0.29191 -109.2742,9.82403 -2.0815,6.2893 -2.0279,72.8072 0.059,78.87358 3.6426,10.57769 0.8154,10.30701 107.4985,10.30701 h 88.6683 v 18.69273 c 0,24.43006 1.2929,28.27263 10.3485,30.74589 8.943,2.44141 6.089,4.7183 57.8801,-46.02064 56.9037,-55.73853 55.1816,-51.96496 33.4813,-73.32202 -6.1694,-6.07169 -26.8934,-26.4628 -46.0616,-45.31475 l -34.8493,-34.27532 h -5.7241 c -5.1126,0 -6.0944,0.30252 -9.1684,2.80762 m 189.9062,184.31079 c -24.49,2.44142 -50.7236,9.081 -66.0721,16.72899 -26.5017,13.20486 -42.1185,34.65746 -46.5229,63.90665 -1.6255,10.81653 -1.2983,209.75457 0.3594,218.33667 10.9119,56.41788 56.2278,79.13894 157.8358,79.14425 104.3547,0.005 148.0827,-23.25181 158.1844,-84.13323 1.6309,-9.82403 1.3251,-204.51083 -0.3326,-213.51753 -2.0708,-11.2305 -5.3862,-21.76042 -8.7016,-27.64635 -0.8905,-1.58161 -2.4677,-4.36801 -3.5031,-6.18845 -7.4946,-13.20486 -22.1671,-24.69012 -43.2666,-33.87196 -7.9237,-3.44451 -25.3269,-7.84967 -43.3685,-10.97574 -18.5244,-3.21099 -79.7896,-4.25125 -104.6122,-1.7833 m -1113.94897,6.73512 c -7.76813,2.20789 -12.78415,7.29239 -16.44826,16.67591 -1.23925,3.15792 -4.34007,11.11905 -6.89368,17.68964 -2.55361,6.56528 -5.59542,14.33003 -6.75956,17.24911 -1.16415,2.91908 -3.37442,8.68825 -4.90337,12.82804 -1.53431,4.13448 -3.74458,9.90365 -4.91946,12.82273 -1.17487,2.91908 -4.18985,10.68383 -6.70055,17.24911 -2.51606,6.57059 -5.33254,13.59231 -6.266,15.60382 -0.9281,2.01682 -1.96886,4.80322 -2.3122,6.19376 -0.33798,1.39054 -1.31436,4.12387 -2.17272,6.06638 -1.49139,3.38614 -3.12227,7.65861 -7.19947,18.79888 -1.0193,2.79702 -2.18881,5.71079 -2.59116,6.48036 -0.94956,1.80453 -5.97095,18.72458 -8.25096,27.79497 -0.97638,3.89564 -2.39267,9.46843 -3.1491,12.38752 -1.17487,4.52723 -1.43238,16.99436 -1.73817,84.91872 l -0.3648,79.61131 2.04933,3.95934 c 4.05573,7.83906 1.87229,7.53653 54.35545,7.53653 h 46.04549 l 3.28858,-2.19727 c 6.37331,-4.26716 6.31966,-3.90095 6.74347,-46.85921 0.20923,-21.14477 0.57403,-38.7601 0.81544,-39.14223 0.94419,-1.51792 88.6039,-0.82796 89.19939,0.70058 0.29506,0.76958 0.55793,17.78517 0.57939,37.81537 0.059,54.82035 -5.98704,49.68276 58.52919,49.68276 53.5079,0 50.8791,0.33437 55.128,-6.99518 l 2.0923,-3.61966 v -77.39811 c 0,-60.7965 -0.2522,-78.63474 -1.1857,-83.15136 -0.6491,-3.16322 -1.5718,-7.73822 -2.0493,-10.16901 -1.7489,-8.9377 -6.5503,-24.89181 -12.1189,-40.25148 -3.868,-10.67322 -6.9634,-18.7405 -23.2454,-60.58951 -4.163,-10.70507 -9.7906,-25.23148 -12.4998,-32.29035 -2.7146,-7.05356 -5.2789,-13.61884 -5.7027,-14.59541 -0.4185,-0.97126 -2.8648,-7.14379 -5.4238,-13.70906 -5.5471,-14.21328 -8.92688,-18.36368 -16.85059,-20.68833 -5.68125,-1.67184 -153.31865,-2.04866 -159.08038,-0.40867 m 401.33557,-0.43521 c -19.5545,1.85229 -32.065,4.18756 -44.2108,8.24773 -6.958,2.32465 -9.9247,3.72581 -22.7518,10.70507 -13.0738,7.12256 -26.0994,24.15938 -32.2313,42.17276 -2.5,7.35609 -3.2564,10.74222 -5.3862,24.19653 -1.2661,7.98767 -1.2661,186.45499 -0.01,194.43205 1.7274,10.89082 2.8111,16.43177 3.5675,18.20445 0.4131,0.97656 1.4324,3.95933 2.2693,6.63427 8.8625,28.33101 37.4887,50.12328 74.162,56.44973 18.4869,3.18976 20.6328,3.25875 99.6928,3.25875 h 78.2339 l 3.6856,-1.94782 c 7.355,-3.89034 7.4945,-4.7183 7.4945,-44.97508 0,-35.89939 -0.3755,-40.55931 -3.5729,-44.42311 -4.2381,-5.12166 -3.0955,-5.03143 -69.3016,-5.51441 l -60.7985,-0.44052 -5.1341,-2.04866 c -5.7724,-2.30873 -9.7208,-5.77978 -12.0599,-10.60953 -1.4699,-3.03585 -1.5826,-8.05667 -1.5826,-71.82002 v -68.55064 l 1.9904,-3.68335 c 6.6737,-12.34506 8.0685,-12.56797 80.7553,-12.8758 65.3692,-0.27599 61.5924,0.0955 66.7479,-6.59182 l 2.5054,-3.24814 0.2682,-36.78043 c 0.3165,-44.23204 -0.1878,-46.80083 -9.9355,-50.43641 -2.3068,-0.8598 -145.6095,-1.18886 -154.4023,-0.3556 m 303.7082,0.0584 c -9.0772,1.34809 -13.9322,7.38262 -21.1907,26.34073 -2.9775,7.78068 -6.1695,15.94349 -7.0922,18.13015 -0.9174,2.19196 -2.5429,6.3689 -3.6051,9.28798 -1.0676,2.91909 -2.3068,6.0027 -2.7628,6.84658 -0.4507,0.84388 -0.8208,1.99028 -0.8208,2.54225 0,0.88634 -0.9067,3.13669 -5.853,14.49457 -0.6384,1.45954 -2.3551,6.03984 -3.8143,10.17432 -1.4592,4.13448 -3.5032,9.4419 -4.5439,11.79309 -1.0354,2.35119 -1.883,4.64399 -1.883,5.09512 0,0.45113 -0.7672,2.51041 -1.7114,4.56969 -0.9388,2.06459 -2.5214,5.94431 -3.5139,8.61925 -2.8004,7.54716 -11.8078,31.19171 -12.6339,33.17138 -2.1781,5.20658 -8.5031,29.33942 -10.5525,40.24617 -1.8508,9.8665 -2.7628,156.277 -1.0139,162.55037 2.9667,10.63607 5.0911,11.02882 58.0357,10.66791 59.2373,-0.39805 53.5615,4.89875 53.6097,-50.02243 l 0.038,-38.24528 2.0118,-0.48297 c 1.1105,-0.26537 21.3248,-0.37152 44.9296,-0.23883 l 42.9178,0.24944 0.4507,38.4788 0.4453,38.4788 2.4946,4.19286 c 4.5492,7.65861 1.8937,7.30301 55.1762,7.30301 54.1409,0 51.9145,0.31845 56.2492,-7.96113 l 2.3176,-4.42108 0.2843,-67.66961 c 0.3326,-78.36406 -0.5633,-92.8374 -7.0653,-113.66902 -0.456,-1.45955 -2.0601,-6.63428 -3.5676,-11.49588 -4.1791,-13.48615 -3.251,-11.03412 -35.4126,-93.7662 -3.2188,-8.26896 -7.0761,-18.22037 -8.5782,-22.11602 -1.4967,-3.89034 -3.6695,-9.43128 -4.8175,-12.31321 -1.1534,-2.88193 -2.0922,-5.55687 -2.0922,-5.94431 0,-0.63159 -2.1245,-5.50911 -6.0246,-13.83645 -1.9313,-4.12917 -7.8969,-8.85808 -13.1007,-10.38131 -4.2328,-1.24725 -149.2737,-1.86291 -157.31,-0.66874 m 478.1263,93.07093 c 10.193,2.62717 14.5062,5.39234 17.1349,10.97044 l 2.1459,4.56438 -0.011,73.85806 c -0.011,86.44196 0.5901,82.04211 -11.9526,87.14785 -2.0172,0.82265 -4.2811,1.79921 -5.0375,2.17604 -3.8143,1.89475 -23.519,3.004 -35.5843,2.0062 -18.8355,-1.56569 -27.0114,-5.0102 -31.0403,-13.0934 l -2.2317,-4.46885 0.2414,-74.70194 0.2468,-74.69664 2.4731,-4.16102 c 3.9163,-6.59181 11.5986,-9.56928 30.1605,-11.68694 7.6448,-0.87041 26.5554,0.30783 33.4545,2.08582 m -394.5975,4.85629 c 5.4506,0.90226 7.575,4.54315 12.9129,22.1744 1.3305,4.37862 3.5569,11.54364 4.9571,15.92226 2.339,7.31894 3.5997,11.36319 10.3271,33.17138 1.2768,4.13448 2.6179,8.31673 2.9828,9.28799 1.4967,4.03894 2.0225,3.98056 -38.5188,3.98056 -32.8697,0 -38.4705,-0.18576 -38.8997,-1.2897 -0.4238,-1.08802 2.9828,-12.97664 8.1061,-28.34163 0.6492,-1.94782 2.0601,-6.52282 3.133,-10.17432 1.0783,-3.6462 2.2854,-7.62677 2.6878,-8.84216 0.4077,-1.2154 2.2263,-6.98988 4.045,-12.82804 6.7649,-21.71796 7.3604,-22.56715 16.2658,-23.44818 3.3584,-0.33437 6.7113,-0.4989 7.4463,-0.37683 0.7403,0.12738 2.7896,0.46705 4.5546,0.76427 m -698.80988,2.65902 c 2.29611,2.85008 3.74995,6.41136 6.69519,16.42115 1.07294,3.65151 2.28001,7.43039 2.68236,8.40165 1.35728,3.29591 7.13509,22.11072 7.13509,23.23589 0,0.61035 0.36481,1.80452 0.81008,2.65371 0.43991,0.84388 1.71671,4.52192 2.83258,8.16812 1.1105,3.6515 2.74674,8.82093 3.63192,11.50118 0.88518,2.67494 1.72208,6.25745 1.86156,7.96113 l 0.25214,3.09423 -38.79237,0.22821 -38.79237,0.23353 0.5472,-3.76827 c 0.30579,-2.0752 2.50533,-9.73911 4.89264,-17.03682 4.00209,-12.23891 6.1748,-19.12263 13.6747,-43.3457 6.36793,-20.56625 6.68445,-20.86878 21.22824,-20.55033 9.05566,0.20168 9.29171,0.26006 11.34104,2.80232 m 195.45858,257.65934 c -2.4946,0.47236 -7.7252,5.33926 -47.7461,44.47618 -50.2192,49.10426 -48.9585,47.69248 -48.8995,54.84689 0.064,7.40915 -2.5643,4.506 56.9788,63.02561 l 37.58,36.92904 h 5.3808 c 12.8539,0 14.6457,-3.46575 15.1875,-29.43496 0.3595,-17.3818 0.617,-20.27434 1.8616,-20.93246 0.794,-0.41929 42.6228,-0.82266 92.9493,-0.89165 102.9546,-0.13799 96.8495,0.26006 100.5458,-6.57059 1.9474,-3.60374 1.9689,-4.12917 1.9689,-42.57082 v -38.91933 l -2.1513,-2.98808 c -5.1555,-7.1491 1.25,-6.71389 -102.3698,-6.94741 -50.6001,-0.11146 -92.1017,-0.31314 -92.2251,-0.44052 -0.1234,-0.13268 -0.3809,-9.68073 -0.574,-21.22437 l -0.3487,-20.98554 -2.5536,-2.63779 c -4.4742,-4.62276 -8.943,-5.97616 -15.5846,-4.73422"
		style="fill:#ef7922" />
</svg>

